<svg xmlns="http://www.w3.org/2000/svg" viewBox="0 0 16 16" fill="#FFF"><path fill-rule="evenodd" d="M0 1c0-.5523.4477-1 1-1h5c.5523 0 1 .4477 1 1v5c0 .5523-.4477 1-1 1H1c-.5523 0-1-.4477-1-1V1zm2 1v3h3V2H2zM9 1c0-.5523.4477-1 1-1h5c.5523 0 1 .4477 1 1v5c0 .5523-.4477 1-1 1h-5c-.5523 0-1-.4477-1-1V1zm2 1v3h3V2h-3zM0 10c0-.5523.4477-1 1-1h5c.5523 0 1 .4477 1 1v5c0 .5523-.4477 1-1 1H1c-.5523 0-1-.4477-1-1v-5zm2 1v3h3v-3H2zM9 10c0-.5523.4477-1 1-1h5c.5523 0 1 .4477 1 1v5c0 .5523-.4477 1-1 1h-5c-.5523 0-1-.4477-1-1v-5zm2 1v3h3v-3h-3z" clip-rule="evenodd"/></svg>