<svg xmlns="http://www.w3.org/2000/svg" viewBox="0 0 16 16" fill="#FFF"><path d="M11.0216 11.4814c.0996-.3667.0664-.7334-.0995-.9535-.166-.22-.3983-.3667-.697-.4034l-5.775-.0734c-.1909 0-.1063-.2567.0332-.2567l5.8082-.0733c.697-.0367 1.4271-.6601 1.6926-1.3936.0511-.1466.3687-.875.3319-1.0635C11.9509 5.3936 10.4242 4 8.632 4 6.9725 4 5.5454 5.1736 5.0476 6.824c-.332-.2568-.7302-.4035-1.1948-.3668-.7966.0733-1.4272.8068-1.5268 1.687-.0332.22 0 .44.0333.66C1.0649 8.841.0028 10.0145.0028 11.4814c0 .1111-.0337.5135.1328.5135h10.6537c.1869 0 .1957-.365.2323-.5135zM12.847 7.4525c-.4082 0-.4028.5935-.4978.9535-.0995.3667-.0664.7335.0996.9535.1659.22.3982.3667.6969.4034l1.2281.0734c.1751 0 .1244.2567-.0333.2567l-1.2611.0733c-.697.0367-1.4271.6601-1.6927 1.3936-.0174.0866-.155.4401 0 .4401h4.381c.2255 0 .2323-.8958.2323-1.0636 0-1.907-1.4271-3.484-3.153-3.484z"/></svg>