<svg xmlns="http://www.w3.org/2000/svg" viewBox="0 0 16 16" fill="#FFF"><path fill-rule="evenodd" d="M0 7.2476v-.2471h10.771c.5768 0 1.1896-.14 1.6879-.44-.2307-.3012-.3486-.6816-.3832-1.0566-.0471-.51.0558-1.174.401-1.5731l.1718-.1988.2048.1647c.5155.4141.9491.9929 1.0255 1.6527.6208-.1826 1.3496-.1394 1.8967.1763L16 5.8553l-.1181.2306c-.4628.903-1.4302 1.1829-2.3761 1.1334C12.0905 10.7444 9.25 13 5.2732 13 2.3508 13 0 10.5 0 7.2476zm4.6867 1.7886a.5.5 0 1 0-.3735.9276.5.5 0 0 0 .3735-.9276z" clip-rule="evenodd"/><path d="M1 5h1.5v1.5H1V5zM3 5h1.5v1.5H3V5zM5 5h1.5v1.5H5V5zM7 5h1.5v1.5H7V5zM9 5h1.5v1.5H9V5zM3 3h1.5v1.5H3V3zM5 3h1.5v1.5H5V3zM7 3h1.5v1.5H7V3zM7 1h1.5v1.5H7V1z"/></svg>