<svg xmlns="http://www.w3.org/2000/svg" viewBox="0 0 16 16" fill="#FFF"><path d="M4.4322 5.5515c0 .2012.0217.3644.0598.484.0435.1197.098.2502.174.3916a.2365.2365 0 0 1 .0381.1251c0 .0544-.0326.1088-.1033.1632l-.3426.2284c-.049.0326-.098.049-.1415.049-.0543 0-.1087-.0272-.1631-.0762a1.6821 1.6821 0 0 1-.1958-.2556 4.2077 4.2077 0 0 1-.1686-.3209c-.4242.5004-.9572.7505-1.599.7505-.4568 0-.8212-.1305-1.0877-.3915C.636 6.438.5 6.0899.5 5.6548c0-.4623.1632-.8375.495-1.1204.3317-.2828.7722-.4242 1.3324-.4242.185 0 .3753.0163.5765.0435s.408.0707.6255.1197v-.397c0-.4134-.087-.7016-.2556-.8702-.174-.1686-.4678-.2502-.8866-.2502-.1903 0-.3861.0217-.5874.0707-.2012.049-.397.1088-.5873.1849a1.5616 1.5616 0 0 1-.1904.0707c-.038.0109-.0652.0163-.087.0163-.0761 0-.1142-.0544-.1142-.1686v-.2665c0-.087.0109-.1523.038-.1903.0272-.0381.0762-.0762.1523-.1142.1904-.098.4188-.1795.6853-.2448.2665-.0707.5493-.1033.8485-.1033.6472 0 1.1203.1468 1.425.4405.299.2937.4513.7397.4513 1.338v1.762h.0109zm-2.2081.8267c.1795 0 .3644-.0327.5602-.098.1958-.0652.3698-.1848.5166-.348.087-.1033.1523-.2176.185-.348.0326-.1306.0543-.2883.0543-.4733v-.2284a4.5415 4.5415 0 0 0-.5003-.0924 4.0972 4.0972 0 0 0-.5113-.0327c-.3643 0-.6308.0707-.8103.2176-.1795.1468-.2665.3535-.2665.6254 0 .2557.0652.446.2012.5765.1305.136.3209.2013.571.2013zm4.3673.5874c-.098 0-.1632-.0164-.2067-.0544-.0435-.0327-.0816-.1088-.1142-.2121L4.9924 2.4949c-.0327-.1087-.049-.1795-.049-.2175 0-.087.0436-.136.1306-.136h.533c.1033 0 .174.0163.212.0544.0436.0326.0762.1088.1089.2121l.9136 3.6004L7.69 2.408c.0272-.1088.0598-.1795.1033-.2121.0435-.0326.1197-.0544.2176-.0544h.435c.1034 0 .1741.0163.2176.0544.0435.0326.0816.1088.1034.2121l.8593 3.644.9409-3.644c.0326-.1088.0707-.1795.1088-.2121.0435-.0326.1142-.0544.2121-.0544h.5058c.087 0 .1359.0435.1359.136 0 .0272-.0054.0544-.0108.087a.7846.7846 0 0 1-.0381.136L10.17 6.7045c-.0326.1088-.0707.1795-.1142.2121-.0435.0326-.1142.0544-.2066.0544h-.4678c-.1033 0-.174-.0163-.2175-.0544-.0435-.038-.0816-.1088-.1034-.2175l-.843-3.508L7.38 6.6936c-.0272.1088-.0598.1795-.1033.2176-.0436.038-.1197.0544-.2176.0544h-.4677zm6.9887.1468a3.5981 3.5981 0 0 1-.8375-.0979c-.272-.0653-.4841-.136-.6255-.2176-.087-.0489-.1468-.1033-.1686-.1522a.3848.3848 0 0 1-.0326-.1523V6.215c0-.1142.0435-.1686.1251-.1686a.3084.3084 0 0 1 .0979.0163c.0326.0109.0815.0327.1359.0544.185.0816.3862.1469.5983.1904a3.266 3.266 0 0 0 .6472.0652c.3426 0 .6091-.0598.7941-.1794.1849-.1197.2828-.2937.2828-.5167 0-.1523-.049-.2774-.1469-.3807-.0979-.1034-.2828-.1958-.5493-.2828l-.7886-.2448c-.397-.125-.6907-.31-.8702-.5547-.1795-.2393-.2719-.5058-.2719-.7886 0-.2285.0489-.4297.1468-.6037.0979-.174.2284-.3264.3916-.446.1632-.1251.3481-.2176.5656-.2828.2176-.0653.446-.0925.6853-.0925.1197 0 .2448.0054.3644.0217.1251.0164.2393.0381.3535.0599.1088.0272.2121.0544.31.087.0979.0326.1741.0653.2285.0979.0761.0435.1305.087.1631.136.0326.0435.049.1033.049.1794v.2557c0 .1142-.0435.174-.1251.174-.0435 0-.1142-.0217-.2067-.0653-.31-.1414-.6581-.212-1.0442-.212-.31 0-.5548.0489-.7234.1522-.1686.1034-.2556.261-.2556.484 0 .1523.0544.2829.1632.3862.1087.1033.31.2067.5982.2991l.7723.2448c.3916.125.6744.2991.843.5221.1686.223.2502.4786.2502.7614 0 .2339-.0489.446-.1414.631-.0979.1848-.2284.348-.397.4785-.1686.136-.3699.2339-.6037.3046-.2448.0761-.5004.1142-.7778.1142zM14.4654 9.6235c-1.7508 1.2931-4.2944 1.9795-6.4816 1.9795-3.065 0-5.827-1.1334-7.913-3.0172-.1649-.149-.0159-.3512.181-.2342 2.2563 1.3091 5.0394 2.102 7.9183 2.102 1.9423 0 4.0762-.4044 6.0398-1.2346.2927-.133.5428.1916.2555.4045zm.729-.8302c-.2235-.2873-1.4794-.1384-2.0488-.0692-.1702.0213-.1969-.1277-.0425-.2394 1.0004-.7025 2.6447-.5003 2.8363-.2661.1916.2395-.0532 1.8838-.9898 2.6714-.1437.1223-.282.0585-.2182-.1012.2129-.5268.6865-1.7135.463-1.9955z"/></svg>