<svg xmlns="http://www.w3.org/2000/svg" viewBox="0 0 16 16" fill="#FFF"><path fill-rule="evenodd" d="M2 .9995c0-.5523.4477-1 1-1s1 .4477 1 1v.1707c1.1652.4119 2 1.523 2 2.8293 0 1.3062-.8348 2.4175-2 2.8293v8.1707c0 .5523-.4477 1-1 1s-1-.4477-1-1V6.8288C.8348 6.417 0 5.3058 0 3.9995 0 2.6933.8348 1.582 2 1.1702V.9995zm2 3c0 .5523-.4477 1-1 1s-1-.4477-1-1 .4477-1 1-1 1 .4477 1 1zM7 .9995c0-.5523.4477-1 1-1s1 .4477 1 1v8.1707c1.1652.4119 2 1.5231 2 2.8293s-.8348 2.4175-2 2.8293v.1707c0 .5523-.4477 1-1 1s-1-.4477-1-1v-.1707c-1.1652-.4118-2-1.5231-2-2.8293s.8348-2.4174 2-2.8293V.9995zm1 12c.5523 0 1-.4477 1-1s-.4477-1-1-1-1 .4477-1 1 .4477 1 1 1z" clip-rule="evenodd"/><path fill-rule="evenodd" d="M13-.0005c-.5523 0-1 .4477-1 1v3.1707c-1.1652.4118-2 1.523-2 2.8293 0 1.3062.8348 2.4175 2 2.8293v5.1707c0 .5523.4477 1 1 1s1-.4477 1-1V9.8288c1.1652-.4118 2-1.523 2-2.8293 0-1.3062-.8348-2.4175-2-2.8293V.9995c0-.5523-.4477-1-1-1zm1 7c0 .5523-.4477 1-1 1s-1-.4477-1-1 .4477-1 1-1 1 .4477 1 1z" clip-rule="evenodd"/></svg>