<svg xmlns="http://www.w3.org/2000/svg" viewBox="0 0 16 16" fill="#FFF"><path fill-rule="evenodd" d="M15.9988 4.9996c0 2.7612-2.2384 4.9996-4.9996 4.9996-1.0187 0-1.9663-.3046-2.7565-.8278l-1.8284 1.8284 1.2934 1.2934c.3905.3905.3905 1.0236 0 1.4141-.3905.3905-1.0236.3905-1.4141 0l-1.2934-1.2934-.5857.5857 1.2933 1.2934c.3905.3905.3905 1.0236 0 1.4141-.3905.3905-1.0236.3905-1.414 0l-1.2935-1.2933-1.2933 1.2933c-.3905.3905-1.0236.3905-1.4141 0-.3905-.3905-.3905-1.0236 0-1.4141l6.5355-6.5355c-.5238-.7905-.8289-1.7386-.8289-2.7579C5.9996 2.2384 8.238 0 10.9992 0c2.7612 0 4.9996 2.2384 4.9996 4.9996zm-1.9999 0c0 1.6567-1.343 2.9998-2.9997 2.9998-1.6568 0-2.9998-1.343-2.9998-2.9998 0-1.6567 1.343-2.9998 2.9998-2.9998 1.6567 0 2.9997 1.343 2.9997 2.9998z" clip-rule="evenodd"/></svg>