<svg xmlns="http://www.w3.org/2000/svg" viewBox="0 0 16 16" fill="#FFF"><path fill-rule="evenodd" d="M7.4271 15.8188l-1.216-.7132A.999.999 0 0 0 5.764 15H1c-.5523 0-1-.4477-1-1V2c0-.5523.4477-1 1-1h4.764c.1552 0 .3083.0361.4471.1056L8 2l1.7889-.8944A1 1 0 0 1 10.236 1H15c.5523 0 1 .4477 1 1v12c0 .5523-.4477 1-1 1h-4.7639a.999.999 0 0 0-.4473.1056l-1.2159.7132A1.0041 1.0041 0 0 1 8 15.9996a1.0041 1.0041 0 0 1-.5729-.1808zM5.7391 3.1056L7 3.736v9.5889C6.612 13.1495 6.1906 13 5.764 13H2V3h3.2918c.1552 0 .3083.0362.4472.1056zM9 13.325c.388-.1755.8094-.325 1.2361-.325H14V3h-3.2918a1 1 0 0 0-.4472.1056L9 3.736v9.5889z" clip-rule="evenodd"/></svg>