<svg xmlns="http://www.w3.org/2000/svg" viewBox="0 0 16 16" fill="#FFF"><path fill-rule="evenodd" d="M16 8c0 4.4183-3.5817 8-8 8s-8-3.5817-8-8 3.5817-8 8-8 8 3.5817 8 8zm-5.8492 6.1357A6.4894 6.4894 0 0 1 8 14.5a6.505 6.505 0 0 1-1.8337-.2622L8.118 8.5722l2.0071 5.5037a.219.219 0 0 0 .0256.0598zm3.5902-9.1866c.4844.9097.759 1.9483.759 3.0509 0 2.3877-1.2875 4.4748-3.2061 5.6048l1.9828-5.7229c.3723-.9354.4995-1.6801.4995-2.3431 0-.2132-.0138-.4058-.0352-.5897zM2.5775 4.4146C3.741 2.6582 5.7353 1.5 8 1.5c1.6782 0 3.2078.636 4.361 1.68a.1908.1908 0 0 0-.0289-.0026c-.6448 0-1.0989.5631-1.0989 1.1625 0 .4957.2642.9215.5699 1.4139l.0749.121c.2452.436.5359.99.5359 1.7983 0 .5136-.1814 1.0952-.4269 1.8826l-.0008.0027c-.0234.075-.0474.1519-.0718.2308l-.654 2.1796-2.3613-7.0294c.3905-.0273.7447-.0636.7447-.0636.3542-.0454.3088-.5631-.0454-.5359 0 0-1.0626.0818-1.7437.0818-.6448 0-1.7165-.0818-1.7165-.0818-.3451-.0272-.3905.5177-.0363.5359 0 0 .336.0454.6811.0636l1.0263 2.7881-1.4259 4.2868-2.3886-7.075c.3996-.0272.7538-.0635.7538-.0635.3452-.0454.3088-.5631-.0454-.5359 0 0-1.0535.0818-1.7437.0818-.109 0-.241 0-.382-.0072zm2.5559 9.4208C2.981 12.776 1.5 10.561 1.5 8c0-.9314.196-1.8171.5488-2.618l3.0846 8.4534z" clip-rule="evenodd"/></svg>