<svg xmlns="http://www.w3.org/2000/svg" viewBox="0 0 16 16" fill="#FFF"><path d="M10 7.9998c0 1.1046-.8954 2-2 2s-2-.8954-2-2c0-1.1045.8954-2 2-2s2 .8955 2 2z"/><path fill-rule="evenodd" d="M10.3325 2.3686L9.2867.5095a1 1 0 0 0-.8715-.5097h-.8304a1 1 0 0 0-.8715.5097L5.6675 2.3686l-2.054-.5751a1 1 0 0 0-.9768.2558l-.5871.5872a1 1 0 0 0-.2559.9767l.5752 2.054L.5097 6.713A1 1 0 0 0 0 7.5846v.8303a1 1 0 0 0 .5097.8716l1.8592 1.0457-.5752 2.0541a1.0001 1.0001 0 0 0 .2559.9768l.587.5871c.2555.2554.629.3532.9768.2558l2.0541-.5751L6.7133 15.49a1 1 0 0 0 .8716.5098h.8303a1 1 0 0 0 .8715-.5098l1.0458-1.8591 2.0541.5751a1 1 0 0 0 .9767-.2558l.5871-.5871a1 1 0 0 0 .2559-.9768l-.5752-2.0541 1.8592-1.0457A1.0001 1.0001 0 0 0 16 8.4149v-.8303c0-.3613-.1949-.6944-.5097-.8716l-1.8592-1.0457.5752-2.0541a1 1 0 0 0-.2559-.9767l-.5871-.5871a1.0001 1.0001 0 0 0-.9768-.256l-2.054.5752zm1.6968 1.6018l-1.9138.5359a1 1 0 0 1-1.1412-.4727L8 2.3014l-.9743 1.7322a1 1 0 0 1-1.1412.4727l-1.9138-.5359.5358 1.9138a1 1 0 0 1-.4727 1.1412l-1.7321.9744 1.7321.9743a1 1 0 0 1 .4727 1.1412l-.5358 1.9138 1.9138-.5359a1 1 0 0 1 1.1412.4727L8 13.6981l.9743-1.7322a1 1 0 0 1 1.1412-.4727l1.9138.5359-.5358-1.9138a1 1 0 0 1 .4727-1.1412l1.7321-.9743-1.7321-.9744a1.0001 1.0001 0 0 1-.4728-1.1412l.5359-1.9138z" clip-rule="evenodd"/></svg>