<svg xmlns="http://www.w3.org/2000/svg" viewBox="0 0 16 16" fill="#FFF"><path fill-rule="evenodd" d="M13 6c1.6569 0 3-1.3431 3-3 0-1.6568-1.3431-3-3-3s-3 1.3432-3 3c0 .1255.0077.2492.0227.3706l-4.9401 2.47A2.99 2.99 0 0 0 3 5C1.3432 5 0 6.3431 0 8s1.3432 3 3 3a2.99 2.99 0 0 0 2.0826-.8407l4.9401 2.4701A3.0215 3.0215 0 0 0 10 13c0 1.6569 1.3431 3 3 3s3-1.3431 3-3-1.3431-3-3-3c-.8089 0-1.543.3202-2.0826.8407l-4.94-2.47a3.0284 3.0284 0 0 0 0-.7413l4.94-2.47A2.9899 2.9899 0 0 0 13 6zm0-2c.5523 0 1-.4477 1-1s-.4477-1-1-1-1 .4477-1 1 .4477 1 1 1zM4 8c0 .5523-.4477 1-1 1s-1-.4477-1-1 .4477-1 1-1 1 .4477 1 1zm10 5c0 .5523-.4477 1-1 1s-1-.4477-1-1 .4477-1 1-1 1 .4477 1 1z" clip-rule="evenodd"/></svg>