<svg xmlns="http://www.w3.org/2000/svg" viewBox="0 0 16 16" fill="#FFF"><path fill-rule="evenodd" d="M6.8928 15.516c.5119.6453 1.7026.6454 2.2144 0L15.0027 8h-.0023l.0023-.003A4.9766 4.9766 0 0 0 15.9 6a5.022 5.022 0 0 0 .1-1c0-2.7614-2.2386-5-5-5a4.9779 4.9779 0 0 0-3 .9996A4.9779 4.9779 0 0 0 5 0C2.2386 0 0 2.2386 0 5c0 .3425.0344.6769.1 1a4.9769 4.9769 0 0 0 .8973 1.9969L.9996 8H.9973l5.8955 7.516zm-.094-12.9172l.901.6766a.5.5 0 0 0 .6005 0l.9009-.6766C9.7024 2.2223 10.3223 2 11 2c.935 0 1.77.4277 2.3202 1.0981L8.9334 6.7538 6.1612 4.9056a.5.5 0 0 0-.6774.116l-2.0924 2.79-.7526-.9595-.04-.0533C2.2223 6.2976 2 5.6777 2 5c0-1.6568 1.3432-3 3-3 .6777 0 1.2976.2223 1.7988.5988zm-2.1294 6.842L8 13.687l5.3618-6.8356.0394-.0526a2.9744 2.9744 0 0 0 .5957-1.6612L9.3534 9.0072a.5.5 0 0 1-.5975.032L6.2325 7.3567l-1.563 2.084z" clip-rule="evenodd"/></svg>