<svg xmlns="http://www.w3.org/2000/svg" viewBox="0 0 16 16" fill="#FFF"><path fill-rule="evenodd" d="M7.6063.0809a1 1 0 0 1 .7879 0l7 3a1 1 0 0 1 0 1.8382l-7 3a1 1 0 0 1-.7879 0l-7-3a1 1 0 0 1 0-1.8383l7-3zM3.5388 4l4.4614 1.912L12.4617 4 8.0002 2.088 3.5388 4z" clip-rule="evenodd"/><path fill-rule="evenodd" d="M.0811 7.606c.2176-.5076.8054-.7427 1.313-.5252L8.0004 9.912l6.606-2.8312c.5077-.2175 1.0955.0176 1.3131.5253.2176.5076-.0176 1.0955-.5252 1.313l-7 3a.9992.9992 0 0 1-.7879 0l-7-3c-.5076-.2175-.7427-.8054-.5252-1.313z" clip-rule="evenodd"/><path fill-rule="evenodd" d="M.0811 11.6061c.2176-.5076.8054-.7428 1.313-.5252l6.6062 2.8311 6.606-2.8311c.5077-.2176 1.0955.0176 1.3131.5252.2176.5076-.0176 1.0955-.5252 1.313l-7 3a.9992.9992 0 0 1-.7879 0l-7-3c-.5076-.2175-.7427-.8054-.5252-1.313z" clip-rule="evenodd"/></svg>