<svg xmlns="http://www.w3.org/2000/svg" viewBox="0 0 16 16" fill="#FFF"><path fill-rule="evenodd" d="M3.5 6C4.3284 6 5 5.3284 5 4.5S4.3284 3 3.5 3 2 3.6716 2 4.5 2.6716 6 3.5 6zm0 2C5.433 8 7 6.433 7 4.5S5.433 1 3.5 1 0 2.567 0 4.5 1.567 8 3.5 8zM12.5 13c.8284 0 1.5-.6716 1.5-1.5s-.6716-1.5-1.5-1.5-1.5.6716-1.5 1.5.6716 1.5 1.5 1.5zm0 2c1.933 0 3.5-1.567 3.5-3.5S14.433 8 12.5 8 9 9.567 9 11.5s1.567 3.5 3.5 3.5zM2.9753 15.8475c-.4735-.2927-.6174-.9142-.3215-1.3825L11.6323.4701c.296-.4683.9192-.6107 1.3927-.318.4735.2927.617.9097.321 1.378L4.3685 15.53c-.2959.4683-.9197.6102-1.3932.3175z" clip-rule="evenodd"/></svg>