<svg xmlns="http://www.w3.org/2000/svg" viewBox="0 0 16 16" fill="#FFF"><path fill-rule="evenodd" d="M.3618 3.0306C.1956 2.9475 0 3.0683 0 3.2542v8.7457c0 2.2091 3.5817 4 8 4s8-1.7909 8-4V3.2542c0-.1859-.1956-.3067-.3618-.2236L12 4.8496 8.1952.0938a.25.25 0 0 0-.3904 0L4 4.8497.3618 3.0306zM14 9.354V6.0857l-1.8287.9144a.9999.9999 0 0 1-1.228-.2698L8 3.0513l-2.9433 3.679a1 1 0 0 1-1.228.2698L2 6.0857v3.2684c1.4659-.8305 3.6106-1.3542 6-1.3542s4.5341.5237 6 1.3542zm-6 .6458c1.796 0 4.5627.2196 5.8444 1.7347.1787.2113.1787.3193 0 .5306C12.5627 13.7803 9.7959 13.9999 8 13.9999c-1.796 0-4.5627-.2196-5.8444-1.7347-.1788-.2114-.178-.3201 0-.5306C3.4373 10.2195 6.204 9.9999 8 9.9999z" clip-rule="evenodd"/></svg>