<svg xmlns="http://www.w3.org/2000/svg" viewBox="0 0 16 16" fill="#FFF"><path fill-rule="evenodd" d="M13 3H3v10h10V3zM3 1c-1.1046 0-2 .8954-2 2v10c0 1.1046.8954 2 2 2h10c1.1046 0 2-.8954 2-2V3c0-1.1046-.8954-2-2-2H3z" clip-rule="evenodd"/><path fill-rule="evenodd" d="M13 3H3v10h10V3zM3 1c-1.1046 0-2 .8954-2 2v10c0 1.1046.8954 2 2 2h10c1.1046 0 2-.8954 2-2V3c0-1.1046-.8954-2-2-2H3z" clip-rule="evenodd"/><path fill-rule="evenodd" d="M7 7v2h2V7H7zM6 5c-.5523 0-1 .4477-1 1v4c0 .5523.4477 1 1 1h4c.5523 0 1-.4477 1-1V6c0-.5523-.4477-1-1-1H6z" clip-rule="evenodd"/><path fill-rule="evenodd" d="M7 7v2h2V7H7zM6 5c-.5523 0-1 .4477-1 1v4c0 .5523.4477 1 1 1h4c.5523 0 1-.4477 1-1V6c0-.5523-.4477-1-1-1H6z" clip-rule="evenodd"/></svg>