<svg xmlns="http://www.w3.org/2000/svg" viewBox="0 0 16 16" fill="#FFF"><path d="M13 12.6998V15c0 .5523.4477 1 1 1s1-.4477 1-1v-2.3002C15 10.6565 13.3435 9 11.3002 9c-.1988 0-.3964.032-.585.095l-2.0827.6942a2 2 0 0 1-1.265 0l-2.0827-.6943A1.8498 1.8498 0 0 0 4.6998 9C2.6565 9 1 10.6565 1 12.6998V15c0 .5523.4477 1 1 1s1-.4477 1-1v-2.3002c0-.8153.574-1.4965 1.3399-1.6616.2192-.0473.4447-.0018.6574.0691l1.7378.5792a3.9998 3.9998 0 0 0 2.5298 0l1.7378-.5792c.2127-.0709.4382-.1164.6574-.0691.7659.1651 1.3399.8463 1.3399 1.6616z"/><path fill-rule="evenodd" d="M8 6c1.1046 0 2-.8954 2-2s-.8954-2-2-2-2 .8954-2 2 .8954 2 2 2zm0 2c2.2091 0 4-1.7909 4-4 0-2.2091-1.7909-4-4-4-2.2091 0-4 1.7909-4 4 0 2.2091 1.7909 4 4 4z" clip-rule="evenodd"/></svg>