<svg xmlns="http://www.w3.org/2000/svg" viewBox="-1 0 16 16"><path fill="#222" fill-rule="evenodd" d="M7.158.026a.5.5 0 0 0-.316 0l-6 2a.5.5 0 0 0-.028.938L3 3.84v.727l-.723-.482A.5.5 0 0 0 1.5 4.5v1.627A3.496 3.496 0 0 0 0 9c0 1.2.605 2.26 1.526 2.89C1.755 13.65 3.492 16 7 16c3.509 0 5.245-2.351 5.474-4.11A3.496 3.496 0 0 0 14 9c0-1.19-.593-2.24-1.5-2.873V4.5a.5.5 0 0 0-.777-.416L11 4.566v-.727l2.186-.875a.5.5 0 0 0-.028-.938l-6-2zM10.5 12.5c.28 0 .554-.033.816-.096C10.86 13.6 9.529 15 7 15s-3.86-1.4-4.316-2.595a3.512 3.512 0 0 0 2.91-.6L7 14.618l1.406-2.813a3.485 3.485 0 0 0 2.094.695zM7.12 9.913a3.504 3.504 0 0 1 2.881-4.378A.516.516 0 0 1 10 5.5v-2a.5.5 0 0 1 .314-.464l1.233-.493L7 1.027 2.453 2.543l1.233.493A.5.5 0 0 1 4 3.5v2l-.001.035a3.5 3.5 0 0 1 2.88 4.378L7 9.793l.12.12zm4.38-4.268a3.482 3.482 0 0 0-.227-.06l.227-.15v.21zm-8.773-.06l-.227-.15v.21c.075-.022.15-.042.227-.06zM6 9a2.5 2.5 0 1 1-5 0 2.5 2.5 0 0 1 5 0zm4.5 2.5a2.5 2.5 0 1 0 0-5 2.5 2.5 0 0 0 0 5zm-3.5.882l-.392-.783.392-.392.392.392-.392.783z"/></svg>