<svg xmlns="http://www.w3.org/2000/svg" fill="none" viewBox="0 0 320 192"><path fill="#D0D4DE" d="M153.896 19.827c-27.506-5.52-59.77-22.366-84.457-16.665-24.562 5.562-41.573 33.414-46.738 62.764-5.14 29.606 1.292 60.732 20.347 79.274 18.931 18.681 50.337 24.663 76.11 24.792 25.921.246 46.357-5.244 66.7-11.755 20.195-6.628 40.444-14.161 64.845-30.514 24.128-16.33 52.407-41.481 49.02-61.918-3.387-20.436-38.565-36.02-67.244-40.804-28.702-5.04-51.202.486-78.583-5.174z"/><path fill="url(#paint0_linear)" d="M277.367 61.133c11.992 33.104-18.448 71.813-61.571 95.109-43.123 23.296-98.929 31.353-139.515 11.56C35.464 148.185 9.867 100.893 25.78 63.76 41.46 26.627 98.88-.347 154.917.003c55.806.35 110.459 28.025 122.45 61.13z"/><path fill="#363D4E" d="M106.739 6.208C122.208 2.11 138.621-.099 154.917.003c36.308.228 72.129 12.023 96.029 29.354C244.74 27.47 238.467 26 232.479 25c-13.946-2.449-26.428-2.403-38.717-2.358-13.002.047-25.789.094-39.866-2.816-9.012-1.809-18.534-4.833-28.133-7.882-6.35-2.016-12.733-4.044-19.024-5.737z"/><path fill="#222734" d="M194.754 166H72.719c-14.817-7.878-27.429-19.419-36.488-32.686h3.575l.324-18.861h1.513v-9.913h6.053V93.716h7.566V112h15.403v-6.335H82.5V122h4.486v-6.529l2.756-5.466h1.405v-9.323h1.946v-2.894h7.079V86h2.486v11.788h1.622v2.894h1.945V142h3.783v-19.563h11.079V132h4.486v-18.083h5.674V102h4.324v25.654h6.215V132h1.891v-3.294h2.486v-8.627h5.729v-1.768h12.538v15.003h5.945v-4.394h2.594v4.394h5.729l.324-9.538v-9.323h1.513v-9.913h6.053V93.716h7.566V132h15.402v-26.335h11.836V122h4.486v-6.529l2.756-5.466h1.405v-9.323h1.945v-2.894h7.08V86h2.486v11.788h1.621v2.894h1.946v35.678c-8.688 7.363-18.613 14.098-29.321 19.882A191.833 191.833 0 01194.754 166zM266.161 113.917h-1.696V102h-4.486v19.743a109.21 109.21 0 006.182-7.826zM259.374 122.437H248.9v10.606a132.28 132.28 0 0010.474-10.606zM34.077 130.02a91.46 91.46 0 01-.678-1.1h.678v1.1z"/><path fill="#363E54" d="M265.115 115.351l-.393-.69h-2.223v-4.01h-1.654v-1.864h-1.083v-2.541h-1.083V98h-.57v8.246h-1.197v2.541h-1.083v1.864h-1.596v4.01h-2.223l-1.768 3.106v14.042c5.642-5.252 10.65-10.774 14.873-16.458z"/><path fill="#363E54" fill-rule="evenodd" d="M247.962 133.887v-9.4l-10.717 12.764v3.784h-1.14v-26.544h-2.736v-2.993h-1.71v-4.066h-4.617v4.066l-8.722 6.89v-3.953h-1.653v32.361h-2.395v-5.648h-1.197v-9.036l-8.379-6.382v15.418l-5.188 5.309v7.116l-.043 4.187-5.465-.093v-18.665l-5.872.056-3.705-2.033v-2.654h-6.27v-9.488h-.57v9.431h-1.768v-9.431h-.57v9.431h-1.026v30.385h-1.539v-8.472h-2.736v-6.946h-4.674v-7.512h-2.281v7.512h-3.591v-16.209h-2.28v16.209h-.969v-18.129h-1.425v-11.578h-.912v11.578h-8.893v-23.495h-5.245v5.818h-2.907v4.631h-4.047v6.268h-.057l-6.157 3.502v11.634h-12.199v-4.518h-2.394v-5.422l-7.354-5.817-7.068 5.817v5.422h-2.394v4.518h-1.882v-5.026H86.49v-16.717l-1.767-3.106h-2.223v-4.01h-1.654v-1.864h-1.083v-2.541H78.68V98h-.57v8.246h-1.197v2.541h-1.083v1.864h-1.596v4.01H72.01l-1.767 3.106v21.743h-2.28v-15.023l-10.718 12.764v3.784h-1.14v-26.544H53.37v-2.993h-1.71v-4.066h-4.617v4.066l-8.722 6.89v-3.953h-1.653v19.512c.787 1.134 1.6 2.254 2.438 3.361h15.062v.734H39.666c9.486 12.289 22.087 22.778 36.615 29.76 40.586 19.793 96.392 11.736 139.515-11.56 11.895-6.426 22.826-14.025 32.166-22.355zm-209.243-8.778h15.448v.79H38.72v-.79zm0 1.75h15.448v.735H38.72v-.735zm0 1.751h15.448v.734H38.72v-.734zm0 1.751h15.448v.734H38.72v-.734zm0 1.694h15.448v.734H38.72v-.734zm0 1.751h15.448v.734H38.72v-.734zm0 1.751h15.448v.734H38.72v-.734zm150.379 7.624h.855v2.485h-.855v-2.485zm0 4.123h.855v2.485h-.855v-2.485zm0 4.01h.855v2.485h-.855v-2.485zm0 4.122h.855v2.485h-.855v-2.485zm-2.11-12.255h.855v2.485h-.855v-2.485zm0 4.123h.855v2.485h-.855v-2.485zm0 4.01h.855v2.485h-.855v-2.485zm0 4.122h.855v2.485h-.855v-2.485zm-2.109-12.255h.855v2.485h-.855v-2.485zm0 4.123h.855v2.485h-.855v-2.485zm0 4.01h.855v2.485h-.855v-2.485zm0 4.122h.855v2.485h-.855v-2.485zm-2.166-12.255h.855v2.485h-.855v-2.485zm0 4.123h.855v2.485h-.855v-2.485zm0 4.01h.855v2.485h-.855v-2.485zm0 4.122h.855v2.485h-.855v-2.485zm-2.109-12.255h.855v2.485h-.855v-2.485zm0 4.123h.855v2.485h-.855v-2.485zm0 4.01h.855v2.485h-.855v-2.485zm0 4.122h.855v2.485h-.855v-2.485zm-2.109-12.255h.855v2.485h-.855v-2.485zm0 4.123h.855v2.485h-.855v-2.485zm0 4.01h.855v2.485h-.855v-2.485zm0 4.122h.855v2.485h-.855v-2.485zm40.224-30.327h15.448v.79h-15.448v-.79zm0 1.75h15.448v.735h-15.448v-.735zm0 1.751h15.448v.734h-15.448v-.734zm0 1.751h15.448v.734h-15.448v-.734zm0 1.694h15.448v.734h-15.448v-.734zm0 1.751h15.448v.734h-15.448v-.734zm0 1.751h15.448v.734h-15.448v-.734zm0 1.751h15.448v.734h-15.448v-.734z" clip-rule="evenodd"/><path fill="#FEC007" d="M235.2 16.6l5 1.7 4.1-3.3.2 5.2 4.2 3.1-4.9 1.6-1.4 5.1-3.3-4.2-5.1.1 3-4.3-1.8-5zM136.5 28.7l-5.2-1.5-1.9-5.2-3 4.7-5.4.1 3.3 4.2-1.6 5.1 5.2-1.9 4.5 3.3-.3-5.6 4.4-3.2zM96.9 27.3l-2.5.5-1.9-1.8-.2 2.6-2.3 1.2 2.4 1.1.4 2.4 1.6-1.7 2.7.2-1.3-2.3 1.1-2.2zM57 46.7l3.2-1.4.6-3.3 2.3 2.6 3.3-.3-1.7 2.8 1.5 3.1-3.2-.8-2.7 2.3-.3-3.4-3-1.6zM208.3 8l.3 2.4 2.4 1.2-2.2 1.1-.3 2.5-1.9-1.7-2.3.5.9-2.2-1.2-2.3 2.5.3 1.8-1.8zM33.4 83l1.2 1.1 1.9-.5-.7 1.6 1 1.4h-1.7L34 87.8l-.5-1.6-1.5-.5 1.4-1V83z"/><path fill="#009BEC" d="M184.7 124.041s-8.9 17-37 25c0 0-11.2-4.6-7.7-7.2 8.2-6.4 11.8-24.4 11.8-24.4s30.4 2.5 32.9 6.6z"/><path fill="#788996" d="M155 146.741s-8.7-2.9-8.3-8.5l-19.5 10s-10.6 14.2-8.7 15.3c.8.5 5.8-5.3 14.5-9.6 6.1-2.9 14.1-3.1 22-7.2z"/><path fill="#53BCE7" d="M179.8 123.041s-17.3 16.2-45.5 24.2c0 0-12-4.2-8.5-6.7 8.2-6.4 23.8-28.1 23.8-28.1s27.5 6.6 30.2 10.6z"/><path fill="#A5B2C0" d="M136.9 146.541s-8.7-2.9-8.3-8.5l-18.2 9.4c-.5.3-.9.6-1.4 1.2-2.3 2.6-11.5 14.2-8.5 15 .9.2 5.8-5.3 14.5-9.6 6-3.1 14-3.4 21.9-7.5z"/><path fill="#009BEC" d="M49 59.441s20.7 76.6 76.8 71.3c56.2-5.1 40.6-67.7 40.6-67.7l-82.6 20.1-29.3-17-5.5-6.7z"/><path fill="#53BCE7" d="M196.3 80.041s5-10.3 21.9-13c0 0 3.8-2.6 8.9-4.7 0 0 8.7 3.8 6.5 8-1.7 3.3-4.3 5.8-11.5 10.1 0 0-12.3 10.3-13.3 16.5-1 6.4-19.3-.9-12.5-16.9z"/><path fill="#D3DAE5" d="M116.5 102.941c3.8-17.7 31.6-27 62.2-20.4 30.6 6.6 52.2 26.2 48.4 43.9-3.8 17.7-31.7 24.1-62.2 17.6-30.5-6.5-52.1-23.4-48.4-41.1z"/><path fill="#9EA5AF" d="M161.8 39.541l-2.2 4.3c-7.9 15.1-17.6 29.1-28.9 41.6-1.4 1.2-2.6 2.6-3.6 3.9-.5.5-.9 1.5-.9 1.5-.9 1.7-1.7 3.5-2.1 5.3-3.5 15.9 15.9 31.3 43.3 37.1 27.2 5.8 52.2-.1 55.4-16 .5-1.8.5-3.7.3-5.6 0 0-.2-1.4-.3-1.8-.3-1.7-.8-3.5-1.7-5-5.3-16.2-8.5-33.2-9.6-50.4l-.3-6.7-49.4-8.2z"/><path fill="#fff" d="M124.3 124.441l5.1-11.7-5.5-10.6-6.5 11.7c1.4 3.7 3.7 7.3 6.9 10.6z"/><path fill="#fff" d="M170.7 40.341c-19.3 48.7-40.3 56.6-46.8 61.9 1.2 2.9 3.6 11.9 3.6 11.9 28.7-11.7 51.2-71.1 51.2-71.1l-8-2.7z"/><path fill="#7F8B99" d="M210.9 48.741c-2.1 3.2-14.6 3.5-27.9.7-13.4-2.7-22.7-7.3-20.8-10.4 2.1-3.2 14.6-3.5 27.9-.7 13.3 2.7 22.9 7.3 20.8 10.4z"/><path fill="#DFE2E8" d="M197.8 38.041l-16.3-2.2-.8 5.7c-.3 1.7 3.1 3.6 7.6 4.2 4.4.6 8.3-.2 8.6-2.1l.9-5.6z"/><path fill="#fff" d="M181.6 43.641c.7.5 1.7 1.1 3.1 1.5l1.6-8.3-3.5-.4-1.2 7.2z"/><path fill="#A6AEBA" d="M197.605 38.27c.185-1.424-3.304-3.053-7.795-3.638-4.491-.586-8.282.094-8.467 1.518-.186 1.423 3.304 3.052 7.794 3.638 4.491.586 8.282-.094 8.468-1.518z"/><path fill="#636C75" d="M190.1 33.741c-5.8-1.7-13.5-7.9-15.1-15.7-.3-1.8-1.4 0-1.4-.8 0-.3-.6 0-.5-.3-1.7 1.2-2.1 3.6-.6 6.8 2.4 5.5 8.9 11.5 15 13.2 3.5.9 6 .2 6.8-1.7-.3.2 0-.3-.3-.3-1.1.1-2.1-.7-3.9-1.2z"/><path fill="#C3CAD1" d="M180.9 14.441c-2.9-.8-5.1-.5-6.4.8 0 0-2.6 2.7-2.6 2.9.9-1.7 3.5-2.3 6.8-1.4 6 1.7 13 7.6 15.4 13.3 1.2 2.9.2 5.3-.9 6.7.1 0 .9-.7 1.7-1.5 1.8-1.6 2.6-4.3 1.7-6.7l-.3-.9c-2.3-5.7-9.1-11.6-15.4-13.2z"/><path fill="#7F8B99" d="M178.8 16.541c-6-1.7-8.9 1.7-6.5 7.4 2.4 5.7 9.2 11.7 15.4 13.3 6 1.7 8.9-1.7 6.5-7.4-2.4-5.8-9.3-11.8-15.4-13.3zm7.8 18.7c-4.7-1.4-10.3-6-12.1-10.6-1.8-4.4.3-7.2 5.1-5.8 4.7 1.4 10.3 6 12.1 10.6 2.2 4.5-.2 7.2-5.1 5.8z"/><path fill="#fff" d="M180.1 16.041c-2.9-.8-6.2 0-7.4 1.2 1.2-.8 3.6-.9 6-.5 6 1.7 13 7.6 15.4 13.3 1.2 2.9.8 5.5-.5 6.7 1.9-1.4 2.6-4 1.1-7.4-2.4-5.6-8.6-11.6-14.6-13.3z"/><path fill="#000" d="M192.3 93.741c-.3 0-.8 0-1.2-.2-1.7-.5-3.1-2.1-4.4-5-.3-.8 0-1.8.8-2.3.8-.3 1.8 0 2.3.8 1.2 2.4 1.8 2.6 2.3 2.7.6.2 2.1-.3 3.5-1.2 2.9-1.8 6.3-2.3 12.1-1.3.8.2 2.1.5 1.8 1.5-.2.8-1.4.8-2.4.6-4.6-.6-7 .2-9.6 1.9-1.7 1.4-3.4 2.5-5.2 2.5z"/><path fill="#009BEC" d="M171.8 71.841s10 6 22.1 7c17 1.5 19.9-4.6 19.9-4.6l-2-16s-1.5 2.6-11.7 3.1c-9.8.3-21.8-4.5-21.8-4.5l-6.5 15z"/><path fill="#000" d="M195.3 71.141c-.3 0-4.3-.9-6.4-5.8-.2-.3 0-.8.3-.8.3-.2.8 0 .8.3 1.7 4.1 5.1 5 5.3 5 .3 0 .6.5.5.8.2.1-.1.5-.5.5z"/><path fill="#53BCE7" d="M163.8 103.941s20.3-14.8 5.1-22.8c-15-7.9-23.9 18.3-20.7 28.8.2.5.5.8.9 1.2 2.3 1.2 9.4 4.6 20.5 1.7 0 0-4.6-6.5.8-10.9l-6.6 2z"/><path fill="#384859" d="M162.9 103.441s-12.9 9.2-7.7 10.1c12 2.1 21.1-3.5 21.1-3.5s2.9-.2 5.5-.6c2.6-.5 5.8-2.4 4.4-7.2-1.2-3.9-6.7-5.1-6.7-5.1l-2.6-.2c-3.3.9-2.9 3.9-3.5 3.8-5.3-.6-10.5 2.7-10.5 2.7z"/><path fill="#252E35" d="M181.9 110.141c2.7-.5 6-3.1 5.1-6.5-2.7-10.4-8.5-6.5-8.5-6.5H177c-.8.9-1.4 2.4-.8 3.1.5.8 1.2 0 1.2 0-.5-.9.3-1.7.8-1.8 1.5-.9 4.3-.3 5.1.9 2.6 3.5 1.2 7.2-2.9 7.4-2.3 0-5.3-2.1-5.3-2.1-8.7 4.6-12.3 6.2-17.7 3.5-2.4 2.3-4.3 5-2.1 5.5 12.9 3.1 21.1-3.5 21.1-3.5s2.7.3 5.5 0z"/><path fill="#fff" d="M195.2 71.941c-.8-.6-2.3-1.2-4.4-.9-.9 0-1.7.9-1.4 1.8.3 1.7 1.7 3.8 5.6 1.8.8-.5 1.1-2 .2-2.7zM204.4 72.941c0-.8.4-1.9 1.6-3.1.4-.4 1.3-.4 1.8.3.7 1.1 1.2 3.1-1.8 4.1-.8.5-1.7-.5-1.6-1.3z"/><path fill="#000" d="M194.5 74.441a1.2 1.2 0 100-2.4 1.2 1.2 0 000 2.4zM207.3 72.841c.442 0 .8-.537.8-1.2 0-.663-.358-1.2-.8-1.2-.442 0-.8.537-.8 1.2 0 .663.358 1.2.8 1.2z"/><path fill="#53BCE7" d="M151 74.241c-15.4-9.2-86 42.5-102-14.8 0 0 7.2 11 33.2 10.3 16.1-.3 41.4-18.9 68.2-9.7 0 0-2.7 1.9-2.4 7.2.4 5.1 3 7 3 7z"/><path fill="#46596C" d="M222.8 64.141s-1.4 10.4 8.5 9.6c0 0 7.1-3.5 9.1-10 0 0 .3 0 .8.9.2.2.2.3.3.5.5.3 1.8.9 3.6-.5 0 0 5-1.4 6.7-5.1 1.8-3.8-7.1-8.5-7.1-8.5s-5.1-.6-9.4 5.6c-.1.1-10 4.8-12.5 7.5z"/><path fill="#000" d="M204.5 69.341c-.6 0-.6-.5-.5-.8.2-.5 1.2-2.9 2.6-3.3.5-.1.8-.1 1.4.3.2.2.3.5.1.8-.2.3-.6.3-.9 0-.2-.2-.3-.2-.5-.2-1.6.8-1.2 3.2-2.2 3.2z"/><path fill="#252E35" d="M244 65.341c.3-.2.8-.3.9-.6 0 0 5-1.4 6.8-5 1.8-3.8-7.2-8.7-7.2-8.7s-2.3-.3-5 1.4c3.3.3 11.7 6.7 9.2 8.7-2.7 2.3-4.3 0-5.6-.3l-.6.5c2.6 2.4 1.7 3.6 1.7 3.6l-.2.4zM240.7 63.841s-.5-2.1-5.8 3.5c-3.1 3.3-6.5 4.1-9.1 5 1.2.8 3.1 1.4 5.5 1.2 0 0 7.1-3.5 9.1-10l.3.3z"/><defs><linearGradient id="paint0_linear" x1="150.5" x2="150.5" y1="10" y2="179" gradientUnits="userSpaceOnUse"><stop stop-color="#222633"/><stop offset=".271" stop-color="#2E364B"/><stop offset="1" stop-color="#6B758D"/></linearGradient></defs></svg>