<svg xmlns="http://www.w3.org/2000/svg" width="538" height="89" viewBox="0 0 538 89">
  <defs><style>.cls-1{fill:#f5bebb;}.cls-2{fill:#e87474;}.cls-3{fill:#ffe8af;}.cls-4{fill:#ed9910;}.cls-5{fill:#def1a7;}.cls-6{fill:#9fc110;}.cls-7{fill:#d24f4b;}.cls-8{fill:#e45f56;}.cls-9{fill:#fff;}.cls-10{fill:#f7b32b;}.cls-11{fill:#fdc539;}.cls-12{fill:#a0d121;}.cls-13{fill:#addf23;}</style></defs>
  <g>
    <circle class="cls-1" cx="19" cy="19" r="18"/>
    <path class="cls-2" d="M19,1.665A17.335,17.335,0,1,1,1.665,19,17.355,17.355,0,0,1,19,1.665M19,0A19,19,0,1,0,38,19,19,19,0,0,0,19,0h0Z"/>
    <path class="cls-2" d="M11.664,16.782C10.437,16.237,8.1,15,7.549,16.212s1.1,2.881,2.332,3.425,3.365,0.66,3.914-.56S12.891,17.327,11.664,16.782Zm14.672,0c1.227-.545,3.567-1.787,4.115-0.569s-1.1,2.881-2.332,3.425-3.366.66-3.913-.56S25.109,17.327,26.336,16.782ZM29.753,30A11.429,11.429,0,0,0,19,21.564,11.429,11.429,0,0,0,8.247,30H29.753Z"/>
  </g>
  <g>
    <circle class="cls-1" cx="69" cy="19" r="18"/>
    <path class="cls-2" d="M69,1.665A17.335,17.335,0,1,1,51.665,19,17.355,17.355,0,0,1,69,1.665M69,0A19,19,0,1,0,88,19,19,19,0,0,0,69,0h0Z"/>
    <path class="cls-2" d="M61.664,16.782C60.437,16.237,58.1,15,57.549,16.212s1.1,2.881,2.332,3.425,3.365,0.66,3.914-.56S62.891,17.327,61.664,16.782Zm14.672,0c1.228-.545,3.568-1.787,4.115-0.569s-1.1,2.881-2.332,3.425-3.365.66-3.914-.56S75.109,17.327,76.336,16.782ZM69,27.1A19.916,19.916,0,0,1,79.753,30a11.07,11.07,0,0,0-21.506,0A19.917,19.917,0,0,1,69,27.1Z"/>
  </g>
  <g>
    <circle class="cls-1" cx="119" cy="19" r="18"/>
    <path class="cls-2" d="M119,1.665A17.335,17.335,0,1,1,101.665,19,17.355,17.355,0,0,1,119,1.665M119,0a19,19,0,1,0,19,19A19,19,0,0,0,119,0h0Z"/>
    <path class="cls-2" d="M111.506,17.651c-1.144-.5-2.487-1.654-3-0.528a2.564,2.564,0,0,0,1.335,3.173c1.144,0.5,3.14.61,3.652-.518S112.651,18.155,111.506,17.651Zm14.968,0c1.146-.5,2.488-1.654,3-0.528a2.564,2.564,0,0,1-1.335,3.173c-1.144.5-3.14,0.61-3.651-.518S125.33,18.155,126.474,17.651ZM118.99,27.2a15.777,15.777,0,0,1,8.991,2.8A9.764,9.764,0,0,0,110,30,15.779,15.779,0,0,1,118.99,27.2Z"/>
  </g>
  <g>
    <circle class="cls-1" cx="169" cy="19" r="18"/>
    <path class="cls-2" d="M169,1.665A17.335,17.335,0,1,1,151.665,19,17.355,17.355,0,0,1,169,1.665M169,0a19,19,0,1,0,19,19A19,19,0,0,0,169,0h0Z"/>
    <path class="cls-2" d="M177.426,30.486a9.865,9.865,0,0,0-16.884,0l-1.5-.755a11.535,11.535,0,0,1,19.892,0ZM161.5,17.685c-1.145-.514-2.488-1.685-3-0.538a2.631,2.631,0,0,0,1.335,3.233c1.144,0.513,3.139.621,3.651-.528S162.645,18.2,161.5,17.685Zm14.968,0c1.146-.514,2.488-1.685,3-0.538a2.631,2.631,0,0,1-1.335,3.233c-1.144.513-3.139,0.621-3.651-.528S175.323,18.2,176.468,17.685Z"/>
  </g>
  <g>
    <circle class="cls-1" cx="219" cy="19" r="18"/>
    <path class="cls-2" d="M219,1.665A17.335,17.335,0,1,1,201.665,19,17.355,17.355,0,0,1,219,1.665M219,0a19,19,0,1,0,19,19A19,19,0,0,0,219,0h0Z"/>
    <path class="cls-2" d="M211.254,17A2.261,2.261,0,1,1,209,19.264,2.257,2.257,0,0,1,211.254,17Zm15.487,0a2.261,2.261,0,1,1-2.254,2.261A2.257,2.257,0,0,1,226.741,17Zm-0.5,12.494a9.412,9.412,0,0,0-14.486,0l-1.258-.967a10.975,10.975,0,0,1,17,0Z"/>
  </g>
  <g>
    <circle class="cls-1" cx="269" cy="19" r="18"/>
    <path class="cls-2" d="M269,1.665A17.335,17.335,0,1,1,251.665,19,17.355,17.355,0,0,1,269,1.665M269,0a19,19,0,1,0,19,19A19,19,0,0,0,269,0h0Z"/>
    <path class="cls-2" d="M261.254,17A2.259,2.259,0,1,1,259,19.26,2.257,2.257,0,0,1,261.254,17Zm15.488,0a2.259,2.259,0,1,1-2.254,2.259A2.256,2.256,0,0,1,276.742,17ZM262.572,30l-1.067-1.267a11.664,11.664,0,0,1,15,0L275.437,30A10.063,10.063,0,0,0,262.572,30Z"/>
  </g>
  <g>
    <circle class="cls-1" cx="319" cy="19" r="18"/>
    <path class="cls-2" d="M319,1.665A17.335,17.335,0,1,1,301.665,19,17.355,17.355,0,0,1,319,1.665M319,0a19,19,0,1,0,19,19A19,19,0,0,0,319,0h0Z"/>
    <path class="cls-2" d="M311.253,16.995A2.228,2.228,0,1,1,309,19.223,2.241,2.241,0,0,1,311.253,16.995Zm15.488,0a2.228,2.228,0,1,1-2.255,2.228A2.241,2.241,0,0,1,326.741,16.995ZM314.346,29.5l-1.061-1.273c1.974-1.6,6.824-2.372,10.806-1.713l-0.274,1.627C320.364,27.573,315.94,28.207,314.346,29.5Z"/>
  </g>
  <g>
    <circle class="cls-3" cx="369" cy="19" r="18"/>
    <path class="cls-4" d="M369,1.665A17.335,17.335,0,1,1,351.665,19,17.355,17.355,0,0,1,369,1.665M369,0a19,19,0,1,0,19,19A19,19,0,0,0,369,0h0Z"/>
    <path class="cls-4" d="M361.254,17A2.256,2.256,0,1,1,359,19.259,2.255,2.255,0,0,1,361.254,17Zm15.487,0a2.256,2.256,0,1,1-2.255,2.256A2.256,2.256,0,0,1,376.741,17ZM365,28h8v1.5h-8V28Z"/>
  </g>
  <g>
    <circle class="cls-3" cx="419" cy="19" r="18"/>
    <path class="cls-4" d="M411.252,17a2.279,2.279,0,1,0,2.255,2.278A2.267,2.267,0,0,0,411.252,17Zm15.486,0a2.279,2.279,0,1,0,2.256,2.278A2.267,2.267,0,0,0,426.738,17Zm-7.885,12.986a18.1,18.1,0,0,1-3.007-.242l0.276-1.664c3.453,0.584,7.874-.066,9.469-1.391l1.06,1.3C425.157,29.233,422.019,29.984,418.853,29.984Z"/>
    <path class="cls-4" d="M419,1.665A17.335,17.335,0,1,1,401.665,19,17.355,17.355,0,0,1,419,1.665M419,0a19,19,0,1,0,19,19A19,19,0,0,0,419,0h0Z"/>
  </g>
  <g>
    <circle class="cls-5" cx="469" cy="19" r="18"/>
    <path class="cls-6" d="M469,1.665A17.335,17.335,0,1,1,451.665,19,17.355,17.355,0,0,1,469,1.665M469,0a19,19,0,1,0,19,19A19,19,0,0,0,469,0h0Z"/>
    <path class="cls-6" d="M461.252,16.991A2.221,2.221,0,1,1,459,19.211,2.237,2.237,0,0,1,461.252,16.991Zm15.487,0a2.221,2.221,0,1,1-2.255,2.221A2.238,2.238,0,0,1,476.739,16.991ZM469,32.5a10.416,10.416,0,0,1-9.5-5.741L460.944,26a9.167,9.167,0,0,0,16.119,0l1.436,0.761A10.42,10.42,0,0,1,469,32.5Z"/>
  </g>
  <g>
    <circle class="cls-5" cx="519" cy="19" r="18"/>
    <path class="cls-6" d="M519,1.665A17.335,17.335,0,1,1,501.665,19,17.355,17.355,0,0,1,519,1.665M519,0a19,19,0,1,0,19,19A19,19,0,0,0,519,0h0Z"/>
    <path class="cls-6" d="M511,13.942a3.189,3.189,0,0,0-2.273,3.884c0.443,1.7,1.286-.7,2.983-1.14s3.6,1.241,3.157-.464A3.172,3.172,0,0,0,511,13.942Zm15.985,0a3.189,3.189,0,0,1,2.273,3.884c-0.443,1.7-1.288-.7-2.983-1.14s-3.6,1.241-3.157-.464A3.171,3.171,0,0,1,526.987,13.942ZM506.493,23.5a13.308,13.308,0,0,0,25.5,0h-25.5Z"/>
  </g>
  <g>
    <path class="cls-7" d="M19,51A19,19,0,1,0,38,70,19,19,0,0,0,19,51h0Z"/>
    <path class="cls-8" d="M19,53.5C8.507,53.5.5,59.506,0.5,70S8.507,89,19,89s18.5-8.506,18.5-19S29.493,53.5,19,53.5h0Z"/>
    <path class="cls-7" d="M11.664,68.782C10.437,68.237,8.1,67,7.549,68.212s1.1,2.881,2.332,3.424,3.365,0.66,3.914-.56S12.891,69.327,11.664,68.782Zm14.672,0c1.227-.545,3.567-1.787,4.115-0.569s-1.1,2.881-2.332,3.424-3.366.66-3.913-.56S25.109,69.327,26.336,68.782ZM29.753,82A11.429,11.429,0,0,0,19,73.564,11.429,11.429,0,0,0,8.247,82H29.753Z"/>
    <path class="cls-9" d="M11.664,67.782C10.437,67.237,8.1,66,7.549,67.212s1.1,2.881,2.332,3.424,3.365,0.66,3.914-.56S12.891,68.327,11.664,67.782Zm14.672,0c1.227-.545,3.567-1.787,4.115-0.569s-1.1,2.881-2.332,3.424-3.366.66-3.913-.56S25.109,68.327,26.336,67.782ZM29.753,81A11.429,11.429,0,0,0,19,72.564,11.429,11.429,0,0,0,8.247,81H29.753Z"/>
  </g>
  <g>
    <path class="cls-7" d="M69,51A19,19,0,1,0,88,70,19,19,0,0,0,69,51h0Z"/>
    <path class="cls-8" d="M69,53.5c-10.493,0-18.5,6.006-18.5,16.5S58.507,89,69,89s18.5-8.506,18.5-19S79.493,53.5,69,53.5h0Z"/>
    <path class="cls-7" d="M61.664,68.782C60.437,68.237,58.1,67,57.549,68.212s1.1,2.881,2.332,3.424,3.365,0.66,3.914-.56S62.891,69.327,61.664,68.782Zm14.672,0c1.228-.545,3.568-1.787,4.115-0.569s-1.1,2.881-2.332,3.424-3.365.66-3.914-.56S75.109,69.327,76.336,68.782ZM69,79.1A19.916,19.916,0,0,1,79.753,82a11.07,11.07,0,0,0-21.506,0A19.917,19.917,0,0,1,69,79.1Z"/>
    <path class="cls-9" d="M61.664,67.782C60.437,67.237,58.1,66,57.549,67.212s1.1,2.881,2.332,3.424,3.365,0.66,3.914-.56S62.891,68.327,61.664,67.782Zm14.672,0c1.228-.545,3.568-1.787,4.115-0.569s-1.1,2.881-2.332,3.424-3.365.66-3.914-.56S75.109,68.327,76.336,67.782ZM69,78.1A19.916,19.916,0,0,1,79.753,81a11.07,11.07,0,0,0-21.506,0A19.917,19.917,0,0,1,69,78.1Z"/>
  </g>
  <g>
    <path class="cls-7" d="M119,51a19,19,0,1,0,19,19,19,19,0,0,0-19-19h0Z"/>
    <path class="cls-8" d="M119,53.5c-10.493,0-18.5,6.006-18.5,16.5s8.007,19,18.5,19,18.5-8.506,18.5-19S129.493,53.5,119,53.5h0Z"/>
    <path class="cls-7" d="M111.506,69.651c-1.144-.5-2.487-1.654-3-0.528a2.564,2.564,0,0,0,1.335,3.173c1.144,0.5,3.14.61,3.652-.518S112.651,70.155,111.506,69.651Zm14.968,0c1.146-.5,2.488-1.654,3-0.528a2.564,2.564,0,0,1-1.335,3.173c-1.144.5-3.14,0.61-3.651-.518S125.33,70.155,126.474,69.651ZM118.99,79.2a15.777,15.777,0,0,1,8.991,2.8A9.764,9.764,0,0,0,110,82,15.779,15.779,0,0,1,118.99,79.2Z"/>
    <path class="cls-9" d="M111.506,68.651c-1.144-.5-2.487-1.654-3-0.528a2.564,2.564,0,0,0,1.335,3.173c1.144,0.5,3.14.61,3.652-.518S112.651,69.155,111.506,68.651Zm14.968,0c1.146-.5,2.488-1.654,3-0.528a2.564,2.564,0,0,1-1.335,3.173c-1.144.5-3.14,0.61-3.651-.518S125.33,69.155,126.474,68.651ZM118.99,78.2a15.777,15.777,0,0,1,8.991,2.8A9.764,9.764,0,0,0,110,81,15.779,15.779,0,0,1,118.99,78.2Z"/>
  </g>
  <g>
    <path class="cls-7" d="M169,51a19,19,0,1,0,19,19,19,19,0,0,0-19-19h0Z"/>
    <path class="cls-8" d="M169,53.5c-10.493,0-18.5,6.006-18.5,16.5s8.007,19,18.5,19,18.5-8.506,18.5-19S179.493,53.5,169,53.5h0Z"/>
    <path class="cls-7" d="M177.426,82.486a9.865,9.865,0,0,0-16.884,0l-1.5-.755a11.535,11.535,0,0,1,19.892,0ZM161.5,69.685c-1.145-.514-2.488-1.685-3-0.538a2.631,2.631,0,0,0,1.335,3.233c1.144,0.513,3.139.621,3.651-.528S162.645,70.2,161.5,69.685Zm14.968,0c1.146-.514,2.488-1.685,3-0.538a2.631,2.631,0,0,1-1.335,3.233c-1.144.513-3.139,0.621-3.651-.528S175.323,70.2,176.468,69.685Z"/>
    <path class="cls-9" d="M177.426,81.486a9.865,9.865,0,0,0-16.884,0l-1.5-.755a11.535,11.535,0,0,1,19.892,0ZM161.5,68.685c-1.145-.514-2.488-1.685-3-0.538a2.631,2.631,0,0,0,1.335,3.233c1.144,0.513,3.139.621,3.651-.528S162.645,69.2,161.5,68.685Zm14.968,0c1.146-.514,2.488-1.685,3-0.538a2.631,2.631,0,0,1-1.335,3.233c-1.144.513-3.139,0.621-3.651-.528S175.323,69.2,176.468,68.685Z"/>
  </g>
  <g>
    <path class="cls-7" d="M219,51a19,19,0,1,0,19,19,19,19,0,0,0-19-19h0Z"/>
    <path class="cls-8" d="M219,53.5c-10.493,0-18.5,6.006-18.5,16.5s8.007,19,18.5,19,18.5-8.506,18.5-19S229.493,53.5,219,53.5h0Z"/>
    <path class="cls-7" d="M211.254,69A2.261,2.261,0,1,1,209,71.264,2.257,2.257,0,0,1,211.254,69Zm15.487,0a2.261,2.261,0,1,1-2.254,2.261A2.257,2.257,0,0,1,226.741,69Zm-0.5,12.494a9.412,9.412,0,0,0-14.486,0l-1.258-.967a10.975,10.975,0,0,1,17,0Z"/>
    <path class="cls-9" d="M211.254,68A2.261,2.261,0,1,1,209,70.264,2.257,2.257,0,0,1,211.254,68Zm15.487,0a2.261,2.261,0,1,1-2.254,2.261A2.257,2.257,0,0,1,226.741,68Zm-0.5,12.494a9.412,9.412,0,0,0-14.486,0l-1.258-.967a10.975,10.975,0,0,1,17,0Z"/>
  </g>
  <g>
    <path class="cls-7" d="M269,51a19,19,0,1,0,19,19,19,19,0,0,0-19-19h0Z"/>
    <path class="cls-8" d="M269,53.5c-10.493,0-18.5,6.006-18.5,16.5s8.007,19,18.5,19,18.5-8.506,18.5-19S279.493,53.5,269,53.5h0Z"/>
    <path class="cls-7" d="M261.254,68.5A2.259,2.259,0,1,1,259,70.76,2.257,2.257,0,0,1,261.254,68.5Zm15.488,0a2.259,2.259,0,1,1-2.254,2.259A2.256,2.256,0,0,1,276.742,68.5ZM262.572,81.5l-1.067-1.267a11.664,11.664,0,0,1,15,0L275.437,81.5A10.063,10.063,0,0,0,262.572,81.5Z"/>
    <path class="cls-9" d="M261.254,68A2.259,2.259,0,1,1,259,70.26,2.257,2.257,0,0,1,261.254,68Zm15.488,0a2.259,2.259,0,1,1-2.254,2.259A2.256,2.256,0,0,1,276.742,68ZM262.572,81l-1.067-1.267a11.664,11.664,0,0,1,15,0L275.437,81A10.063,10.063,0,0,0,262.572,81Z"/>
  </g>
  <g>
    <path class="cls-7" d="M319,51a19,19,0,1,0,19,19,19,19,0,0,0-19-19h0Z"/>
    <path class="cls-8" d="M319,53.5c-10.493,0-18.5,6.006-18.5,16.5s8.007,19,18.5,19,18.5-8.506,18.5-19S329.493,53.5,319,53.5h0Z"/>
    <path class="cls-7" d="M311.253,68.995A2.228,2.228,0,1,1,309,71.223,2.241,2.241,0,0,1,311.253,68.995Zm15.488,0a2.228,2.228,0,1,1-2.255,2.228A2.241,2.241,0,0,1,326.741,68.995ZM314.346,81.5l-1.061-1.273c1.974-1.6,6.824-2.372,10.806-1.713l-0.274,1.627C320.364,79.573,315.94,80.207,314.346,81.5Z"/>
    <path class="cls-9" d="M311.253,67.995A2.228,2.228,0,1,1,309,70.223,2.241,2.241,0,0,1,311.253,67.995Zm15.488,0a2.228,2.228,0,1,1-2.255,2.228A2.241,2.241,0,0,1,326.741,67.995ZM314.346,80.5l-1.061-1.273c1.974-1.6,6.824-2.372,10.806-1.713l-0.274,1.627C320.364,78.573,315.94,79.207,314.346,80.5Z"/>
  </g>
  <g>
    <path class="cls-10" d="M369,51a19,19,0,1,0,19,19,19,19,0,0,0-19-19h0Z"/>
    <path class="cls-11" d="M369,53.5c-10.493,0-18.5,6.006-18.5,16.5s8.007,19,18.5,19,18.5-8.506,18.5-19S379.493,53.5,369,53.5h0Z"/>
    <path class="cls-10" d="M361.254,69A2.256,2.256,0,1,1,359,71.259,2.255,2.255,0,0,1,361.254,69Zm15.487,0a2.256,2.256,0,1,1-2.255,2.256A2.256,2.256,0,0,1,376.741,69ZM365,80h8v1.5h-8V80Z"/>
    <path class="cls-9" d="M361.254,68A2.256,2.256,0,1,1,359,70.259,2.255,2.255,0,0,1,361.254,68Zm15.487,0a2.256,2.256,0,1,1-2.255,2.256A2.256,2.256,0,0,1,376.741,68ZM365,79h8v1.5h-8V79Z"/>
  </g>
  <g>
    <path class="cls-10" d="M419,51a19,19,0,1,0,19,19,19,19,0,0,0-19-19h0Z"/>
    <path class="cls-11" d="M419,53.5c-10.493,0-18.5,6.006-18.5,16.5s8.007,19,18.5,19,18.5-8.506,18.5-19S429.493,53.5,419,53.5h0Z"/>
    <path class="cls-10" d="M411.252,69a2.279,2.279,0,1,0,2.255,2.278A2.267,2.267,0,0,0,411.252,69Zm15.486,0a2.279,2.279,0,1,0,2.256,2.278A2.267,2.267,0,0,0,426.738,69Zm-7.885,12.986a18.1,18.1,0,0,1-3.007-.242l0.276-1.664c3.453,0.584,7.874-.066,9.469-1.391l1.06,1.3C425.157,81.233,422.019,81.984,418.853,81.984Z"/>
    <path class="cls-9" d="M411.252,68a2.279,2.279,0,1,0,2.255,2.278A2.267,2.267,0,0,0,411.252,68Zm15.486,0a2.279,2.279,0,1,0,2.256,2.278A2.267,2.267,0,0,0,426.738,68Zm-7.885,12.986a18.1,18.1,0,0,1-3.007-.242l0.276-1.664c3.453,0.584,7.874-.066,9.469-1.391l1.06,1.3C425.157,80.233,422.019,80.984,418.853,80.984Z"/>
  </g>
  <g>
    <path class="cls-12" d="M469,51a19,19,0,1,0,19,19,19,19,0,0,0-19-19h0Z"/>
    <path class="cls-13" d="M469,53.5c-10.493,0-18.5,6.006-18.5,16.5s8.007,19,18.5,19,18.5-8.506,18.5-19S479.493,53.5,469,53.5h0Z"/>
    <path class="cls-12" d="M461.252,68.991A2.221,2.221,0,1,1,459,71.211,2.237,2.237,0,0,1,461.252,68.991Zm15.487,0a2.221,2.221,0,1,1-2.255,2.221A2.238,2.238,0,0,1,476.739,68.991ZM469,84.5a10.416,10.416,0,0,1-9.5-5.741L460.944,78a9.167,9.167,0,0,0,16.119,0l1.436,0.761A10.42,10.42,0,0,1,469,84.5Z"/>
    <path class="cls-9" d="M461.252,67.991A2.221,2.221,0,1,1,459,70.211,2.237,2.237,0,0,1,461.252,67.991Zm15.487,0a2.221,2.221,0,1,1-2.255,2.221A2.238,2.238,0,0,1,476.739,67.991ZM469,83.5a10.416,10.416,0,0,1-9.5-5.741L460.944,77a9.167,9.167,0,0,0,16.119,0l1.436,0.761A10.42,10.42,0,0,1,469,83.5Z"/>
  </g>
  <g>
    <path class="cls-12" d="M519,51a19,19,0,1,0,19,19,19,19,0,0,0-19-19h0Z"/>
    <path class="cls-13" d="M519,53.5c-10.493,0-18.5,6.006-18.5,16.5s8.007,19,18.5,19,18.5-8.506,18.5-19S529.493,53.5,519,53.5h0Z"/>
    <path class="cls-12" d="M511,65.942a3.189,3.189,0,0,0-2.273,3.884c0.443,1.7,1.286-.7,2.983-1.14s3.6,1.241,3.157-.464A3.172,3.172,0,0,0,511,65.942Zm15.985,0a3.189,3.189,0,0,1,2.273,3.884c-0.443,1.7-1.288-.7-2.983-1.14s-3.6,1.241-3.157-.464A3.171,3.171,0,0,1,526.987,65.942ZM506.493,75.5a13.308,13.308,0,0,0,25.5,0h-25.5Z"/>
    <path class="cls-9" d="M511,64.942a3.189,3.189,0,0,0-2.273,3.884c0.443,1.7,1.286-.7,2.983-1.14s3.6,1.241,3.157-.464A3.172,3.172,0,0,0,511,64.942Zm15.985,0a3.189,3.189,0,0,1,2.273,3.884c-0.443,1.7-1.288-.7-2.983-1.14s-3.6,1.241-3.157-.464A3.171,3.171,0,0,1,526.987,64.942ZM506.493,74.5a13.308,13.308,0,0,0,25.5,0h-25.5Z"/>
  </g>
</svg>
