<svg xmlns="http://www.w3.org/2000/svg" fill="none" viewBox="0 0 320 192"><path fill="#C3CAD1" d="M316 116.4c-3.5-27.1-19.4-58.4-44.6-76.2-16.9-12-37.1-20.2-57.8-25.5-29.5-7.5-61.1-10.5-90.6-2.9-20 5.2-40.3 14.6-57.7 24.9a166.86 166.86 0 00-45.6 39.1c-8 10-14.9 21.3-15.7 33.8-1.7 28.7 33.3 40.5 57.9 47.1 46.7 12.4 94.5 21.3 142.7 26.6 17.7 2 35.7 3.4 53.1 1s34.5-9 45.4-20.8c11.8-12.8 15.1-30.5 12.9-47.1z"/><path fill="#222734" d="M292.9 146.7c9-12.3 11.9-26.6 10.9-41.1-2.1-30.4-19-58-45.6-77.1C195.5-16.7 102.9 13 49.7 67.2c22.6-4 45.9-4.1 68.6-1.9 45.8 4.3 90 17.5 128.9 38.5 16.2 8.8 34.6 24.7 45.7 42.9z"/><path fill="#fff" fill-rule="evenodd" d="M263 38.2c.2-.6.9-.9 1.4-.6.6.2.9.9.6 1.4-.2.6-.9.9-1.4.6-.5-.2-.8-.9-.6-1.4zM265.1 112.9c.2-.6.9-.9 1.4-.6.6.2.9.9.6 1.4-.2.6-.9.9-1.4.6-.5-.2-.8-.8-.6-1.4zM277.3 106.7c.2-.6.9-.9 1.4-.6.6.2.9.9.6 1.4-.2.6-.9.9-1.4.6-.5-.2-.8-.9-.6-1.4zM256.7 58.1c.2-.6.9-.9 1.4-.6.6.2.9.9.6 1.4-.2.6-.9.9-1.4.6-.6-.2-.9-.8-.6-1.4zM251.1 28.8c.2-.4.6-.6 1-.5.4.2.6.6.5 1-.2.4-.6.6-1 .5-.4-.1-.6-.6-.5-1zM276.7 51c.2-.4.6-.6 1-.5.4.2.6.6.5 1-.1.4-.6.6-1 .5-.4-.1-.6-.6-.5-1zM224.9 78.9c.2-.4.6-.6 1-.5.4.2.6.6.5 1-.2.4-.6.6-1 .5-.4-.2-.6-.6-.5-1z" clip-rule="evenodd"/><path fill="#fff" d="M236.8 48.8a.8.8 0 100-1.6.8.8 0 000 1.6zM279.5 62.5a.6.6 0 100-1.2.6.6 0 000 1.2zM260.6 42.3a.4.4 0 100-.8.4.4 0 000 .8z"/><path fill="#fff" fill-rule="evenodd" d="M278.9 52.2c.1-.2.3-.3.5-.2.2.1.3.3.2.5-.1.2-.3.3-.5.2-.2-.1-.3-.3-.2-.5zM248.8 62.8c.1-.2.3-.3.5-.2.2.1.3.3.2.5-.1.2-.3.3-.5.2-.2-.1-.3-.3-.2-.5z" clip-rule="evenodd"/><path fill="#fff" d="M273.2 49.7a.2.2 0 100-.4.2.2 0 000 .4zM276.9 47.8a.2.2 0 100-.4.2.2 0 000 .4zM273.6 53.2a.4.4 0 100-.8.4.4 0 000 .8z"/><path fill="#fff" fill-rule="evenodd" d="M266.8 97.7c.1-.2.3-.3.5-.2.2.1.3.3.2.5-.1.2-.3.3-.5.2-.2-.1-.3-.3-.2-.5z" clip-rule="evenodd"/><path fill="#fff" d="M279.9 127.9a.4.4 0 100-.8.4.4 0 000 .8zM287.7 77.5a.4.4 0 100-.8.4.4 0 000 .8zM287.8 95.7a.4.4 0 100-.8.4.4 0 000 .8z"/><path fill="#fff" fill-rule="evenodd" d="M269.1 72.4c.1-.2.3-.3.5-.2.2.1.3.3.2.5-.1.2-.3.3-.5.2-.2-.1-.3-.3-.2-.5z" clip-rule="evenodd"/><path fill="#fff" d="M178.8 70.4a1.1 1.1 0 100-2.2 1.1 1.1 0 000 2.2zM222.9 83.8a1.1 1.1 0 100-2.2 1.1 1.1 0 000 2.2z"/><path fill="#fff" fill-rule="evenodd" d="M197.9 60.7c-.6.3-1.2 0-1.5-.6-.3-.6 0-1.2.6-1.5.6-.3 1.2 0 1.5.6.2.6-.1 1.2-.6 1.5zM178.7 51.5c-.4.2-.9 0-1-.4-.1-.4 0-.9.4-1 .4-.2.9 0 1 .4.1.4 0 .8-.4 1zM205.1 82.6c-.4.2-.9 0-1-.4-.2-.4 0-.9.4-1 .4-.2.9 0 1 .4.1.3 0 .8-.4 1z" clip-rule="evenodd"/><path fill="#fff" d="M184.4 42.4a.6.6 0 100-1.2.6.6 0 000 1.2z"/><path fill="#fff" fill-rule="evenodd" d="M183.8 69.7c-.2.1-.4 0-.5-.2-.1-.2 0-.4.2-.5.2-.1.4 0 .5.2.1.2 0 .4-.2.5zM178 49.1c-.2.1-.4 0-.5-.2-.1-.2 0-.4.2-.5.2-.1.4 0 .5.2.1.2 0 .4-.2.5z" clip-rule="evenodd"/><path fill="#fff" d="M170.1 53.1a.4.4 0 100-.8.4.4 0 000 .8z"/><path fill="#fff" fill-rule="evenodd" d="M174.2 56.4c-.2.1-.4 0-.5-.2-.1-.2 0-.4.2-.5.2-.1.4 0 .5.2.1.2 0 .4-.2.5zM206.8 62.9c-.2.1-.4 0-.5-.2-.1-.2 0-.4.2-.5.2-.1.4 0 .5.2.1.2 0 .4-.2.5z" clip-rule="evenodd"/><path fill="#fff" d="M180.1 55.3a.2.2 0 100-.4.2.2 0 000 .4z"/><path fill="#fff" fill-rule="evenodd" d="M173.1 33.3c-.1 0-.2 0-.2-.1s0-.2.1-.2.2 0 .2.1c0 0 0 .1-.1.2zM176.3 53.9c-.1 0-.2 0-.2-.1s0-.2.1-.2.2 0 .2.1 0 .2-.1.2z" clip-rule="evenodd"/><path fill="#fff" d="M182.1 52.8a.4.4 0 100-.8.4.4 0 000 .8zM175.5 37.3a.4.4 0 100-.8.4.4 0 000 .8z"/><path fill="#fff" fill-rule="evenodd" d="M189.6 25.6c-.2.1-.4 0-.5-.2-.1-.2 0-.4.2-.5.2-.1.4 0 .5.2 0 .2-.1.4-.2.5zM199.2 41.8c-.2.1-.4 0-.5-.2-.1-.2 0-.4.2-.5.2-.1.4 0 .5.2.1.2 0 .4-.2.5z" clip-rule="evenodd"/><path fill="#fff" d="M145 36.1a1.1 1.1 0 100-2.2 1.1 1.1 0 000 2.2zM118.4 43.1a1.1 1.1 0 100-2.2 1.1 1.1 0 000 2.2zM163.5 26.5a1.1 1.1 0 100-2.2 1.1 1.1 0 000 2.2zM164.4 14.5a1.1 1.1 0 100-2.2 1.1 1.1 0 000 2.2z"/><path fill="#fff" fill-rule="evenodd" d="M147.2 50.9c-.4.2-.9 0-1-.4-.2-.4 0-.9.4-1 .4-.2.9 0 1 .4.2.4 0 .9-.4 1zM99.3 54.5c-.4.2-.9 0-1-.4-.2-.4 0-.9.4-1 .4-.2.9 0 1 .4.2.4 0 .9-.4 1zM107.3 51.1c-.4.2-.9 0-1-.4-.2-.4 0-.9.4-1 .4-.2.9 0 1 .4.1.4 0 .8-.4 1zM144.8 17.2c-.4.2-.9 0-1-.4-.2-.4 0-.9.4-1 .4-.2.9 0 1 .4.2.3 0 .8-.4 1zM171.2 48.3c-.4.2-.9 0-1-.4-.2-.4 0-.9.4-1 .4-.2.9 0 1 .4.2.3 0 .8-.4 1zM165.8 17.4c-.3.1-.6 0-.8-.3-.1-.3 0-.6.3-.8.3-.2.6 0 .8.3.1.3 0 .7-.3.8zM204.4 9.5c-.3.1-.6 0-.8-.3-.1-.3 0-.6.3-.8.3-.1.6 0 .8.3.1.3 0 .6-.3.8zM149.9 35.4c-.2.1-.4 0-.5-.2-.1-.2 0-.4.2-.5.2-.1.4 0 .5.2.1.2 0 .4-.2.5z" clip-rule="evenodd"/><path fill="#fff" d="M144 14.9a.4.4 0 100-.8.4.4 0 000 .8z"/><path fill="#fff" fill-rule="evenodd" d="M163 16.8c-.2.1-.4 0-.5-.2-.1-.2 0-.4.2-.5.2-.1.4 0 .5.2.1.2 0 .5-.2.5z" clip-rule="evenodd"/><path fill="#fff" d="M136.2 18.8a.4.4 0 100-.8.4.4 0 000 .8z"/><path fill="#fff" fill-rule="evenodd" d="M200.3 71.6c-.2.1-.4 0-.5-.2-.1-.2 0-.4.2-.5.2-.1.4 0 .5.2.1.2 0 .5-.2.5z" clip-rule="evenodd"/><path fill="#fff" d="M140.2 22.1a.4.4 0 100-.8.4.4 0 000 .8z"/><path fill="#fff" fill-rule="evenodd" d="M172.9 28.6c-.2.1-.4 0-.5-.2-.1-.2 0-.4.2-.5.2-.1.4 0 .5.2.1.2 0 .4-.2.5z" clip-rule="evenodd"/><path fill="#fff" d="M239.3 89.3a.4.4 0 100-.8.4.4 0 000 .8z"/><path fill="#fff" fill-rule="evenodd" d="M146.3 20.9c-.1 0-.2 0-.2-.1s0-.2.1-.2.2 0 .2.1 0 .2-.1.2z" clip-rule="evenodd"/><path fill="#fff" d="M175.5 25.6a.2.2 0 100-.4.2.2 0 000 .4zM169.6 27a.2.2 0 100-.4.2.2 0 000 .4zM189.2 69.2a.2.2 0 100-.4.2.2 0 000 .4z"/><path fill="#fff" fill-rule="evenodd" d="M244.1 42.4c-.1 0-.2 0-.2-.1s0-.2.1-.2.2 0 .2.1 0 .2-.1.2z" clip-rule="evenodd"/><path fill="#fff" d="M165 15.2a.2.2 0 100-.4.2.2 0 000 .4zM142.3 19.7a.2.2 0 100-.4.2.2 0 000 .4z"/><path fill="#fff" fill-rule="evenodd" d="M165.2 18.1c-.1 0-.2 0-.2-.1s0-.2.1-.2.2 0 .2.1c.1.1 0 .2-.1.2zM148.4 18.4c-.2.1-.4 0-.5-.2-.1-.2 0-.4.2-.5.2-.1.4 0 .5.2.1.2 0 .5-.2.5z" clip-rule="evenodd"/><path fill="#fff" d="M171.4 20.9a.4.4 0 100-.8.4.4 0 000 .8z"/><path fill="#fff" fill-rule="evenodd" d="M167.1 18.8c-.2.1-.4 0-.5-.2-.1-.2 0-.4.2-.5.2-.1.4 0 .5.2.1.2 0 .4-.2.5zM234.9 77c-.2.1-.4 0-.5-.2-.1-.2 0-.4.2-.5.2-.1.4 0 .5.2.1.2 0 .4-.2.5zM224.8 86.3c-.4.2-.9 0-1-.4-.2-.4 0-.9.4-1 .4-.2.9 0 1 .4.2.4 0 .8-.4 1z" clip-rule="evenodd"/><path fill="#fff" d="M216.3 87.9a.4.4 0 100-.8.4.4 0 000 .8z"/><path fill="#fff" fill-rule="evenodd" d="M226.3 90c-.1 0-.2 0-.2-.1s0-.2.1-.2.2 0 .2.1 0 .2-.1.2z" clip-rule="evenodd"/><path fill="#fff" d="M222.3 88.8a.2.2 0 100-.4.2.2 0 000 .4zM228.3 87.6a.4.4 0 100-.8.4.4 0 000 .8z"/><path fill="#fff" fill-rule="evenodd" d="M222 38.6c-.4.2-.9 0-1-.4-.2-.4 0-.9.4-1 .4-.2.9 0 1 .4.1.4 0 .8-.4 1z" clip-rule="evenodd"/><path fill="#fff" d="M212.3 60.6a.8.8 0 100-1.6.8.8 0 000 1.6zM227.7 29.5a.6.6 0 100-1.2.6.6 0 000 1.2zM221.1 36.3a.4.4 0 100-.8.4.4 0 000 .8zM213.4 40.2a.4.4 0 100-.8.4.4 0 000 .8zM199.3 58.3a.4.4 0 100-.8.4.4 0 000 .8zM217.4 43.5a.4.4 0 100-.8.4.4 0 000 .8zM223.4 42.3a.2.2 0 100-.4.2.2 0 000 .4zM235.3 30.6a.2.2 0 100-.4.2.2 0 000 .4z"/><path fill="#fff" fill-rule="evenodd" d="M216.4 20.3c-.1 0-.2 0-.2-.1s0-.2.1-.2.2 0 .2.1 0 .2-.1.2z" clip-rule="evenodd"/><path fill="#fff" d="M219.5 41a.2.2 0 100-.4.2.2 0 000 .4zM225.4 39.9a.4.4 0 100-.8.4.4 0 000 .8zM248.9 49a.4.4 0 100-.8.4.4 0 000 .8zM218.8 24.3a.4.4 0 100-.8.4.4 0 000 .8zM262.2 169.8c14.1-6 24-14 30.6-23.1-11.1-18.2-29.4-34.1-45.8-42.9-38.8-21-83.1-34.2-128.9-38.5-22.7-2.1-46-2-68.6 1.9-22.2 22.8-37.7 50-41.1 77.7-1.9 16.2.9 33.7 16.2 42.1 17.2 9.4 43.5 4 65.7-4.1 74.1-26.6 130.2 4.7 171.9-13.1z"/><path fill="#009BEC" d="M262.2 169.8c9.4-4 16.9-8.9 22.9-14.4-8.3-21.9-30-42-48.8-52.2-36.4-19.7-77.9-32.1-120.9-36.1-22.5-2.1-45.7-1.9-68.1 2.5-21.1 22.3-35.6 48.5-38.9 75.3-1.9 16.2.9 33.7 16.2 42.1 17.2 9.4 43.5 4 65.7-4.1 74.1-26.6 130.2 4.7 171.9-13.1z"/><path fill="#1D94D7" d="M11.09 131.16A103.05 103.05 0 008.4 144.9c-1.9 16.2.9 33.7 16.2 42.1 17.2 9.4 43.5 4 65.7-4.1a187.9 187.9 0 0143.44-10.04A964.32 964.32 0 0161.9 156.7c-17.23-4.62-39.56-11.8-50.81-25.54z"/><path fill="#3CB3E8" d="M262.2 169.8c5.7-2.4 10.7-5.2 15.1-8.2-2.8-24.9-27.8-49.6-48.8-60.9-34.1-18.4-73-30.1-113.3-33.8-22.7-2.1-46.1-1.7-68.5 3.3-20.7 22.1-35 48.2-38.3 74.7-1.9 16.2.9 33.7 16.2 42.1 5 2.8 10.9 4.2 17.2 4.7v-.1c.6-1.4 1.1-2.8 1.9-4.1.7-1.1 1.6-2 2.2-3.2-.9 1.2-3.9-.2-4.7-1.2-2.1-2.5-5.3-8.4-2.6-11.3 1.3-1.4 2.7-1.6 4.2-2.2 1-.4 1-.5 1.4-1.4.5-1.1.4-2.1.6-3.2.3-1.5 1.1-3.1 2.2-4.3.9-1 1.7-1.5 2.4-2.9.4-.8.6-1.7 1.2-2.3.5-.5 1.5-.7 2.1-1.3.5-.4.6-.9 1.3-1.1 1-.3 1.8.5 2.5 1.1 1.1 1 2.1 2.5 2.9 3.7.4.6.6 1.4 1 1.9 1.1-1.5 1.5-4.2 3.9-4 2.4.2 3.2 3.5 5.6 4 2.2.5 4.7.1 6.8 1.3.6.3 2.9 1.7 2.3 2.5-.8 1.1-3.1.8-4.1 1.6-1 .9-1.7 3.6-.6 4.5.7.6 2.5.5 3.4.9.9.3 3.4 2.3 1.1 2.9 1.1-.1 2.1-.5 3.3-.5h2.1c.9 0 1.4.1 2.1-.5.7-.5 1.3-1.1 2.1-1.5 1.5-.8 2.6-.2 4.1.3 1 .3 1.7.5 2.5-.2.6-.6 1-1.2 1.1-2 .1-1.6.5-3.2 1.1-4.8 3.8-.2 6.2-4.7 8.6-7.2 1.8-1.8 4.1-3.2 5.8-5.2 1.5-1.8 3.1-3.5 4.6-5.3.5-.6.9-1.4 1.4-2.1.5-.7 1.4-1.5 1.6-2.4.3-1.1-.4-1.2-1.4-1.4-1.8-.4-2.5-1.1-2.9-3-.1-.9-.2-1.8.2-2.6.5-1.1.9-.8 1.9-.9 1.1-.1 1.2-.7 2-1.4 2.6-2.4 6.7.2 8.8 2.3 1.7 1.7-1.1 4.4.6 5.9 1 .9 2.9.9 3.6 2.2.8 1.4-.9 2-2 2.5.2.3.6.3 1 .3.8.4 1.7.7 2.6.9.8.2 2.4 0 3 .4 1.1.7.3 3 1 3.9.5.7 3.2 1.6 4.2 1.4 1.1-.2 1.4-.9 2.3-1.6 1.4-1.2 4.3-2.4 5.3-4.1.7-1.3-.7-3-.2-4.5.2-.8 1.1-1.7 1.8-1.9 1.3-.4 1.9 1 3 1.3 2.8.9 2.5-2.2 2.5-3.8 0-1.6-.4-3.4.5-4.6 1.3-1.9 1.9-2.7 4.3-3 1.4-.2 2.1.7 3.4.8 1.1.2.8-.2 1.2-1.1.7-1.4 3.5-2.2 5-2.7 1.9-.6 4-1 6-1 1.9.1 3.1-1 4.9-1.6 2.7-1 5.6-1.3 8.5-1.3 6.2 0 14-2.8 17.9 3.8 1.1 1 1.1 2 0 3.1-2.1.8-4.2 1.1-6.5.9-2 0-4.3-.4-5.7 1.5-1.4 1.8-1.7 4.9-1.3 7.1.6 2 1.6 3.6 3.2 4.9 1 .4 1.5 1.1 1.7 2-2.2 1.2-4.3 2.5-6.6 3.5-1.8.8-2.8 1.1-2.7 3.4.2 2.2 2 3 3.5 4.3 1 .9 1.6 1.8 2.9 1.7.7 0 .7-.5 1.4-.1.4.2.4.8.7 1.1.9 1.2 3.6 2.1 5 2.3 1.1.2 1.3.1 2.1.8.6.5.2.8 1.3.8 2.7-.2 3.7-6.5 6.7-5.3 1.6.6 1.3 2.9 2.4 3.7.7.5 2.4 0 3.2 0 2.2.2 3.3 1.9 3.1 3.9-.2 1.3-.7 2.5-.9 3.8-.2 1.4-.2 2.9-.2 4.4 15 1 28.5 0 40.7-5.3z"/><path fill="#17A9F4" d="M96.86 165.28a961.02 961.02 0 01-29.33-7.1c.67.74 1.38 1.41 2.37 1.62.8.18 1.63.24 2.47.3 1.48.12 2.99.23 4.33 1 .6.3 2.9 1.7 2.3 2.5-.44.61-1.35.79-2.24.97-.71.14-1.42.27-1.86.63-1 .9-1.7 3.6-.6 4.5.4.35 1.17.46 1.93.57.55.08 1.09.16 1.47.33.9.3 3.4 2.3 1.1 2.9.46-.04.9-.14 1.36-.23a9.04 9.04 0 011.94-.27h2.43c.7.01 1.16.02 1.77-.5l.68-.52c.44-.36.89-.71 1.42-.98 1.3-.7 2.3-.34 3.5.1l.6.2c1 .3 1.7.5 2.5-.2.6-.6 1-1.2 1.1-2 .08-1.27.35-2.54.76-3.82zM62.15 156.76l-.25-.06c-1.36-.36-2.75-.74-4.16-1.14.61.77 1.17 1.61 1.66 2.34.19.28.33.6.47.91.16.37.32.72.53.99.3-.41.55-.91.8-1.42.29-.57.57-1.15.95-1.62zM52.8 154.12c-15.37-4.66-32.36-11.54-41.71-22.96A103.05 103.05 0 008.4 144.9c-1.9 16.2.9 33.7 16.2 42.1a36.69 36.69 0 007.25 2.98c3.14.9 6.49 1.45 9.95 1.72v-.1l.4-.95c.44-1.08.88-2.15 1.5-3.15.28-.44.6-.85.9-1.26.47-.6.94-1.22 1.3-1.94-.9 1.2-3.9-.2-4.7-1.2-2.1-2.5-5.3-8.4-2.6-11.3a6.92 6.92 0 013.19-1.83c.33-.12.67-.23 1.01-.37.95-.38 1-.49 1.34-1.27l.06-.13c.34-.74.4-1.43.47-2.14.03-.34.06-.7.13-1.06a9.32 9.32 0 012.95-5.07c.6-.6 1.15-1.13 1.65-2.13.13-.25.23-.52.34-.78.23-.56.45-1.1.86-1.52.24-.24.6-.4.96-.59.4-.2.83-.4 1.14-.71l.1-.08z"/><path fill="url(#paint0_linear)" d="M118.4 86.6l-43 50.8s-2.7 17.3 14.3 17.3l79-42.5-50.3-25.6z"/><path fill="#009BEC" d="M105.4 138.6c1-6.1-3.2-11.6-9.6-12.9-7.7-1.5-12 3-13 9.1s2.9 11.8 9.3 12.9c6.4 1 12.3-3 13.3-9.1z"/><path fill="#FEC007" d="M95.7 143c-1.3 0-2.7-.3-3.9-.9-2-.9-3.6-2.5-4.4-4.3-.8-1.8-.9-3.7-.1-5.3 1-2.2 3.4-3.6 6.3-3.6 1.3 0 2.7.3 3.9.9 2 .9 3.6 2.5 4.4 4.3.8 1.8.9 3.7.1 5.3-1 2.2-3.4 3.6-6.3 3.6z"/><path fill="#fff" d="M93.6 129.9c1.2 0 2.4.3 3.5.8 3.6 1.7 5.4 5.4 4 8.2-.9 1.9-2.9 3-5.4 3-1.2 0-2.4-.3-3.5-.8-1.8-.8-3.2-2.2-3.9-3.8-.7-1.5-.7-3.1-.1-4.4.9-1.8 2.9-3 5.4-3zm0-2c-3.1 0-6 1.5-7.2 4.2-1.8 3.9.4 8.8 5 10.9 1.4.7 2.9 1 4.4 1 3.1 0 6-1.5 7.2-4.2 1.8-3.9-.4-8.8-5-10.9-1.5-.7-3-1-4.4-1zM66.6 151.7l-10.9 12.5c-.2.3-.3.6-.3.9 0 1.2.3 3.9 3.7 3.7.2 0 .5-.1.7-.2l20.6-12.3-7.4-6.6-6.4 2z"/><path fill="#009BEC" d="M84.1 155.5c-4 1-4.9 1-6.6.6-5.4-1.3-8-7.8-4.7-12.6l-6.2 8.2c-.5 2.9 0 9 8.7 8.7l8.8-4.9z"/><path fill="#fff" d="M84.1 155.5c-1.7.4-2.9.7-3.7.8l-1 1.2c-1.1.1-1.5.1-2.4-.1-.1 0 .4-1.3.4-1.3-2.1-.6-3.8-1.9-4.8-3.7l-1.1-.1c-.6-1-.7-1.2-.8-2.4 0-.1.9-1 .8-1.1-.1-1.8.3-3.6 1.4-5.3l12.5-14.6s-3.8 5.2 0 11.5l-.4.4-.3-.4-.4.5s.2.9 1.5 2.2l.3-.4-.2-.4.6-.5s.7 1.2 3.2 2.5l-.4.5s1 1.1 2.9 1.2l-.2.5s4.1 1.6 8.4-.2l-16.3 9.2z"/><path fill="#009BEC" d="M72.1 157.5c-.4-.3-1-.2-1.4.1L59.9 166l.6.5c.4.2.9.2 1.2-.1l10.4-6.7c.8-.6.8-1.8 0-2.2z"/><path fill="url(#paint1_linear)" d="M161.8 45s-34.8 33.4-72 32.9c0 0 31.6-27.5 72-32.9z"/><path fill="url(#paint2_linear)" d="M158.5 46s-24.1 1.5-58.7 19.7c0 0 21.1-.5 35.2-5.8 14.1-5.3 23.5-13.9 23.5-13.9z"/><path fill="url(#paint3_linear)" d="M202.9 93.8s-27.8 40.5-49.7 59.6c0-.1 17.2-47 49.7-59.6z"/><path fill="url(#paint4_linear)" d="M202.9 93.8s-5.2 16.4-34.2 42.5c0 0 10.7-34.4 34.2-42.5z"/><path fill="#009BEC" d="M193.1 35.2l-.7-.2-50.9 29.7-.7-.5-2.7 2.2-3.8 17.4 7.6 24.1 25.3 5.6 3.3-1.3 5.7-2.1 42.5-38.7 2.1-1.2.9-2.4-28.6-32.6z"/><path fill="#fff" d="M192.6 34.7c10.1-2.7 29.9-6.6 36.3 4.3 6.4 10.8-6.9 29.6-6.9 29.6-.7.2-1.5.1-2.1-.3-2.7-1.5-10.5-6.6-21.3-20.8 0 0-7.3-8.7-6.4-12.5l.4-.3z"/><path fill="#E6E9EF" d="M139.5 64.8s-6.6 12.8 7.1 32c0 0 9.1 13.5 24.5 15.5l-36 15.9-3.7-2-1.5-2.2s-16.1-5.1-16.7-27.3l-.5-1.5 26.8-30.4z"/><path fill="#384859" d="M163.5 110.8l-31.9 15.4 1 .6 31.7-15.6c-.2-.1-.5-.3-.8-.4z"/><path fill="#fff" d="M142.5 90.2s2.7 5.1 4.2 6.6l-27.8 19s-2.4-3.3-3.1-5.3l26.7-20.3z"/><path fill="#384859" d="M117.5 109.2l-1.7 1.3c.1.5.4 1 .6 1.5 0 .1.5-.4.7-.6.2-.2.5-.1.7.1l1.2 1.8c.1.2.1.4-.1.6-.3.3-.9.7-.8.8.3.4.6.9.9 1.3l2-1.5-3.5-5.3z"/><path fill="#384859" d="M117.7 111.9l-.9.6 1 1.3.9-.7-1-1.2zM143.4 93l-1.5 1.3 1.1 1.8 1.6-1.2-1.2-1.9z"/><path fill="#CAD0D8" d="M158.6 108.5l-29 15.3c.1.1.2.1.3.1l29-15.2c-.2-.1-.3-.1-.3-.2zM155.9 106.8l-28.1 15.9c.1 0 .2.1.3.1l28.1-15.9c-.2 0-.2-.1-.3-.1zM153.2 104.8l-28 16.3c.1.1.2.1.2.2l28-16.3-.2-.2zM150.5 102.3l-27.3 17.3.2.2 27.2-17.3c0-.1-.1-.1-.1-.2zM148.1 99.7L121 117.4l.2.2 27.1-17.7c-.1-.1-.2-.1-.2-.2zM137.3 75.6l-24 20.3.1.3 23.9-20.3v-.3zM137.5 69.9l-15.2 14.5-1.7 2 16.9-16.1v-.4z"/><path fill="#fff" d="M105.6 91.3l.1.6 6.6 2.7.8 1 18.4-15.3s4.6-3.5 3.1-5.2l-20 7.7c-.9.4-1.6.9-2.3 1.5l-6.7 7z"/><path fill="#F2F5F9" d="M133.7 76.3l-20.2 8.1-6.9 7.7 5.8 2.4.8 1 18.4-15.3s1.2-.9 2.1-1.9c.4-1.3 0-2 0-2z"/><path fill="#fff" d="M129.3 123.7l2.1 2.4-.5 6.2s.1.5.4.5c.3 0 9.6-4.2 9.6-4.2l12.8-12.9 3.4-2.4s1.9-1.5-.7-1.8c-2.6-.3-5 1.1-5 1.1l-22.1 11.1z"/><path fill="#F2F5F9" d="M131.4 126.1l-.5 6.2s.5-.3.7-.3c.3 0 8.9-3.8 8.9-3.8l12.6-12.8-21.7 10.7z"/><path fill="#fff" d="M192.4 35l-21.8 5.5c-7.1 1.8-13.5 5.6-18.5 11.1l-11.5 12.7s-1.6 3.6-1.2 9c.5 5.5 2.4 19.4 18.1 31.6 13.8 10.8 24 3.2 24 3.2l8.3-3.9c5.1-2.4 9.6-5.9 13-10.4l17.9-23.5c.3-.8-1.1.3-7-4.3-7-5.9-13.2-13.6-13.2-13.6l.3-.5s-7.7-9.7-9.5-15.3c.2 0 .1-1.5 1.1-1.6z"/><path fill="#E6E9EF" d="M200.8 52.4l.2-.5s-2.1-2.7-4.4-6c-8.7 3-47.7 17-56.9 24.9 0 .8 0 1.5.1 2.4.4 4.3 2 13.2 9.8 23l51.2-43.8z"/><path fill="#F2F5F9" d="M200.8 52.4l.2-.5s-2.1-2.7-4.4-6c-8.7 3-47.7 17-56.9 24.9 0 .8 0 1.5.1 2.4.4 4.3 2 13.2 9.8 23l11.9-12.8a11 11 0 011.6-1.5l37.7-29.5z"/><path fill="#E6E9EF" d="M161.2 73.8l-2.1-4.8a5.52 5.52 0 00-7.5-2.8l-9.7 4.1c-.9.4-1.6 1.1-2.2 1.8 0 .4 0 .8.1 1.2.8 8.7 1.5 13.2 8.9 22.9 2.1-1.6 12.2-16.9 12.2-16.9.9-1.7 1.1-3.7.3-5.5z"/><path fill="#F2F5F9" d="M214.5 73.8c.2-.3-.2-.6-.4-.3-7.6 7.6-20 20.5-37.6 32.7-7.9 5.5 3 1.9 11.8-2.5a30 30 0 0010.7-9l15.5-20.9z"/><path fill="#E6E9EF" d="M186.3 38.8l-28.1 10.8c-1.8.7-3.6 1.8-4.9 3.2l-10.7 10.9s16.6-13.1 43.7-24.9z"/><path fill="#384859" d="M198.7 92.72c1.96-1.95 3.36-3.72 3.12-3.96-.23-.23-2 1.16-3.96 3.11-1.95 1.96-3.35 3.73-3.11 3.96.23.24 2-1.16 3.96-3.1z"/><path fill="#F2F5F9" d="M228.9 39c-6-10.2-23.8-7.4-34.3-4.8-1 .3-1.6 1.3-1.3 2.3.3.8.8 1.9 1.7 3.8 1.7 3.6 10.3 12.9 13.6 16.4.7.7 1.9.8 2.6.1l.1-.1c.7-.7 1.9-.7 2.6 0l1.3 1.3c.7.7.7 1.8 0 2.5s-.6 1.9.1 2.6c1.1 1 3 2.5 5.7 3.9.8.4 1.9.1 2.4-.7 3.2-5.1 10.6-18.7 5.5-27.3zM215.6 68.7s-5.4-3.5-7.8-5.8c-4.7-4.6-7.7-8.9-7.7-8.9L171 79.4c-.5.4-.8 1-.8 1.7l-.2 7.6c-.1 3.9-1.9 7.5-4.9 10l-7.1 5.5s2.5 2.3 5.2 3.6c2.9 1.5 6.4 2.3 6.4 2.3s13.6-8.5 24.5-18.9c10.9-10.4 21.5-22.5 21.5-22.5z"/><path fill="url(#paint5_linear)" d="M220.8 70.1l.6-1.5c.2 0 .4 0 .6-.1 0 0 13.2-18.8 6.9-29.6-.2-.4-.5-.8-.8-1.2-6.9-.1-24.4 5.9-68.8 33.4l-45 34c3.8 14.9 15.6 18.7 15.6 18.7l1.5 2.2 3.7 2 36-15.9c-.1 0-.2 0-.3-.1l4.6-1.7c4-.6 6.4-2.4 6.4-2.4l8.3-3.9c5.1-2.4 9.6-5.9 13-10.4L221 70.1c-.2.1-.2.1-.2 0z"/><path fill="url(#paint6_linear)" d="M160.3 76s-.6-9-6.1-8.7c-5.5.3-36.4 17.4-53.2 47.4 0 0 34.8-11 59.3-38.7z"/><path fill="url(#paint7_linear)" d="M160.3 76s-.6-9-6.1-8.7c-5.5.3-26.7 19.7-35.1 34.2-.1-.1 15.7-4.2 41.2-25.5z"/><path fill="#252E35" d="M180.8 80.05c2.23-1.7 3.34-4.02 2.46-5.16-.87-1.14-3.39-.68-5.63 1.03-2.23 1.72-3.34 4.03-2.47 5.17.88 1.14 3.4.68 5.63-1.04zM189.57 47.37c1.37-.71 2.24-1.77 1.93-2.35-.3-.6-1.66-.5-3.04.22-1.37.71-2.24 1.77-1.93 2.36.3.58 1.66.48 3.04-.23zM188.48 41.04c1.32-.57 2.26-1.31 2.11-1.67-.15-.35-1.34-.18-2.66.38-1.33.57-2.27 1.31-2.12 1.67.15.35 1.35.18 2.67-.38zM212.3 57.4l-.7.7c-.2.2-.2.5 0 .7l1.6 1.5c.2.2.5.2.7 0l.7-.7c.2-.2.2-.5 0-.7l-1.7-1.4c-.2-.3-.5-.3-.6-.1z"/><path fill="#C3CAD1" d="M197.9 82.6l-5.1-3.3c-.6-.4-1.3-.3-1.8.1l-10.8 9c-.8.7-.7 1.9.2 2.5l6 3.4c.6.3 1.3.2 1.8-.2l9.9-9c.7-.8.6-2-.2-2.5z"/><defs><linearGradient id="paint0_linear" x1="104.82" x2="153.31" y1="134.66" y2="90.52" gradientUnits="userSpaceOnUse"><stop offset=".05" stop-color="#3CB3E8"/><stop offset=".71" stop-color="#fff"/></linearGradient><linearGradient id="paint1_linear" x1="91.81" x2="159.79" y1="58.02" y2="64.88" gradientUnits="userSpaceOnUse"><stop stop-color="#fff" stop-opacity="0"/><stop offset="1" stop-color="#FF7D08"/></linearGradient><linearGradient id="paint2_linear" x1="101.08" x2="157.22" y1="53.01" y2="58.69" gradientUnits="userSpaceOnUse"><stop offset=".05" stop-color="#fff" stop-opacity="0"/><stop offset=".71" stop-color="#FEC007"/></linearGradient><linearGradient id="paint3_linear" x1="162.21" x2="188.64" y1="139.34" y2="105.83" gradientUnits="userSpaceOnUse"><stop stop-color="#fff" stop-opacity="0"/><stop offset="1" stop-color="#FF7D08"/></linearGradient><linearGradient id="paint4_linear" x1="170.95" x2="200.56" y1="113.55" y2="116.54" gradientUnits="userSpaceOnUse"><stop offset=".05" stop-color="#fff" stop-opacity="0"/><stop offset=".71" stop-color="#FEC007"/></linearGradient><linearGradient id="paint5_linear" x1="152.25" x2="196.35" y1="107.54" y2="51.61" gradientUnits="userSpaceOnUse"><stop stop-color="#fff" stop-opacity="0"/><stop offset="1" stop-color="#7F8B99" stop-opacity=".6"/></linearGradient><linearGradient id="paint6_linear" x1="101" x2="160.3" y1="91" y2="91" gradientUnits="userSpaceOnUse"><stop stop-color="#fff" stop-opacity="0"/><stop offset="1" stop-color="#FF7D08"/></linearGradient><linearGradient id="paint7_linear" x1="119.03" x2="160.28" y1="84.4" y2="84.4" gradientUnits="userSpaceOnUse"><stop stop-color="#fff" stop-opacity="0"/><stop offset=".71" stop-color="#FEC007"/></linearGradient></defs></svg>