<svg xmlns="http://www.w3.org/2000/svg" fill="none" width="65" height="50" viewBox="0 0 65 27">
    <path fill="#fff" fill-rule="evenodd" d="M10.34 12.727c0-1.658-.463-2.998-1.386-4.018-.924-1.02-2.223-1.53-3.898-1.53-.534 0-1.057.033-1.57.1a7.611 7.611 0 0 0-1.515.357v10.125c.464.155.936.284 1.414.386.485.106.956.157 1.413.157 1.695 0 3.042-.48 4.042-1.444 1-.962 1.5-2.34 1.5-4.133zM1.97 27H0V6.235c1.657-.515 3.285-.773 4.884-.773 1.161 0 2.218.182 3.17.544.952.362 1.766.868 2.443 1.516a6.591 6.591 0 0 1 1.556 2.317c.361.896.543 1.869.543 2.917 0 1.278-.22 2.374-.657 3.29-.438.915-1.014 1.668-1.728 2.259a6.92 6.92 0 0 1-2.442 1.302 9.605 9.605 0 0 1-2.8.414 9.97 9.97 0 0 1-1.513-.114c-.5-.078-.996-.183-1.485-.315V27zm14.512-7.023h2.022V0h-2.022v19.977zm16.813-8.668c0-.59-.09-1.141-.271-1.655a3.754 3.754 0 0 0-.772-1.311c-.334-.361-.768-.651-1.301-.87-.534-.218-1.153-.328-1.858-.328-.725 0-1.349.11-1.873.328-.524.219-.938.499-1.243.841a5.763 5.763 0 0 0-.843 1.298 5.295 5.295 0 0 0-.5 1.697h8.661zm1.601 6.472a6.644 6.644 0 0 1-2.316 1.64c-.877.371-1.934.556-3.173.556-1.143 0-2.144-.195-3.001-.585a6.105 6.105 0 0 1-2.144-1.582 6.727 6.727 0 0 1-1.287-2.281 8.503 8.503 0 0 1-.428-2.71c0-1.254.171-2.342.515-3.264.342-.922.809-1.688 1.4-2.296a5.595 5.595 0 0 1 2.058-1.355 6.991 6.991 0 0 1 2.487-.442c2.097 0 3.677.642 4.745 1.926 1.067 1.282 1.582 3.15 1.544 5.603h-10.72c.057 1.616.524 2.899 1.4 3.85.877.95 2.069 1.425 3.574 1.425.839 0 1.6-.138 2.287-.413.686-.276 1.304-.718 1.858-1.327l1.201 1.255zM48.22 9.087c-.494-.628-1.028-1.089-1.601-1.384-.574-.295-1.256-.442-2.045-.442-1.008 0-1.715.18-2.12.542a1.758 1.758 0 0 0-.607 1.37c0 .38.093.704.282.97.187.267.434.495.74.685.306.19.663.357 1.068.5.417.147.837.285 1.26.414.537.172 1.07.358 1.6.556a6.135 6.135 0 0 1 1.467.785c.444.324.805.718 1.082 1.184.276.467.415 1.052.415 1.756 0 .647-.139 1.227-.415 1.74a3.907 3.907 0 0 1-1.126 1.3 5.07 5.07 0 0 1-1.676.798 7.58 7.58 0 0 1-2.06.272c-1.126 0-2.124-.186-2.993-.556-.87-.372-1.69-.986-2.46-1.842l1.541-1.37c1.028 1.333 2.361 1.999 4.002 1.999 1.066 0 1.857-.2 2.37-.6.514-.4.771-.885.771-1.456 0-.437-.094-.804-.281-1.099a2.49 2.49 0 0 0-.771-.756c-.326-.21-.7-.385-1.126-.528-.446-.15-.896-.287-1.349-.414a23.272 23.272 0 0 1-1.585-.514 5.82 5.82 0 0 1-1.408-.728 3.57 3.57 0 0 1-1.023-1.127c-.267-.457-.4-1.037-.4-1.741 0-1.256.454-2.226 1.363-2.911s2.085-1.028 3.528-1.028c1.027 0 1.941.172 2.742.514.8.343 1.566.942 2.297 1.798l-1.453 1.342-.03-.029zm7.266 3.517l6.836-6.917H65l-7.007 6.86 6.979 7.43h-2.764l-6.722-7.373zm-1.993 7.373h1.993V0h-1.993v19.977z" clip-rule="evenodd"/>
    <path fill="#4BB6D5" fill-rule="evenodd" d="M11.507 27h11.974v-1.873H11.507V27z" clip-rule="evenodd"/>
</svg>
