<svg xmlns="http://www.w3.org/2000/svg" style="position: absolute; width: 0; height: 0; overflow: hidden;">
    <symbol id="catalog" viewBox="0 0 32 32"><path d="M0 30h32v2H0zm30-9h2v9h-2z"/><path d="M20 20h12v2H20zM0 20h12v2H0z"/><path d="M0 20h2v10H0zm13 4h6v2h-6z"/><path d="M11 20h2l1 6h-2zm10 0h-2l-1 6h2zM5 0h2L2 20H0zm22 0h-2l5 20h2z"/><path d="M6 0h21v2H6zm2 14h16v2H8zm2-4h12v2H10zm2-4h8v2h-8z"/></symbol>
    <symbol id="extension" viewBox="0 0 32 32"><path fill-rule="evenodd" d="M6 2h6a4 4 0 0 1 4 4v6a4 4 0 0 1-4 4H6a4 4 0 0 1-4-4V6a4 4 0 0 1 4-4zM5 4h8a1 1 0 0 1 1 1v8a1 1 0 0 1-1 1H5a1 1 0 0 1-1-1V5a1 1 0 0 1 1-1zm17-2h6a4 4 0 0 1 4 4v6a4 4 0 0 1-4 4h-6a4 4 0 0 1-4-4V6a4 4 0 0 1 4-4zm-1 2h8a1 1 0 0 1 1 1v8a1 1 0 0 1-1 1h-8a1 1 0 0 1-1-1V5a1 1 0 0 1 1-1zm1 14h6a4 4 0 0 1 4 4v6a4 4 0 0 1-4 4h-6a4 4 0 0 1-4-4v-6a4 4 0 0 1 4-4zm-1 2h8a1 1 0 0 1 1 1v8a1 1 0 0 1-1 1h-8a1 1 0 0 1-1-1v-8a1 1 0 0 1 1-1zM6 18h6a4 4 0 0 1 4 4v6a4 4 0 0 1-4 4H6a4 4 0 0 1-4-4v-6a4 4 0 0 1 4-4zm-1 2h8a1 1 0 0 1 1 1v8a1 1 0 0 1-1 1H5a1 1 0 0 1-1-1v-8a1 1 0 0 1 1-1z"/></symbol>
    <symbol id="update" viewBox="0 0 32 32"><path fill-rule="evenodd" d="M16 0A16 16 0 1 1 0 16 16 16 0 0 1 16 0zm0 2A14 14 0 1 1 2 16 14 14 0 0 1 16 2z"/><path fill-rule="evenodd" d="M6.991 17L16 7.991 25.009 17"/><path d="M12 16h8v8h-8z"/></symbol>
</svg>