<svg xmlns="http://www.w3.org/2000/svg" fill="#737373" viewBox="0 0 16 16"><path fill-rule="evenodd" d="M4.703 1.968c.116.05.222.122.311.211l3.91 3.91.708-.71-.039-.038c-.54-.541-.707-1.357-.499-2.041L7.882 2.086a3.06 3.06 0 00-1.303-.752 2.201 2.201 0 00-.298-.065c-.44-.062-.536-.655-.131-.838a4.972 4.972 0 01.337-.139L6.493.29c2.324-.852 4.679.298 6.238 1.826l.044.043 1.06 1.06c.36.36.553.82.583 1.29.47.03.93.223 1.29.582a1 1 0 010 1.414l-1.769 1.768a1 1 0 01-1.414 0 1.993 1.993 0 01-.582-1.29 1.992 1.992 0 01-1.247-.54l-.71.709 5.72 5.72a1.002 1.002 0 010 1.417l-1.417 1.417a1.002 1.002 0 01-1.418 0l-5.72-5.72-.67.672a1 1 0 01-.039 1.374l-3.455 3.455a1.75 1.75 0 11-2.474-2.475l3.455-3.455a1 1 0 011.414 0l.036.037.67-.67-3.909-3.91a1.002 1.002 0 01-.211-.31L.01.174A.125.125 0 01.175.011l4.528 1.957zm-.396.918l8.636 8.636-1.42 1.421-8.637-8.636-1.082-2.503 2.502 1.082h.001zM12.23 13.65l1.421-1.42L15 13.577v.003L13.581 15 13.58 15h-.002l-1.349-1.35zm-.183-10.806l-.008-.007-.007-.007C10.926 1.748 9.417 1 8 1c.125 0 .332.125.5.292l1.341 1.343.04.05a1 1 0 01.179.919l-.01.03a1 1 0 00.25 1l1.06 1.06c.18.18.41.277.645.291a1 1 0 01.936.936.993.993 0 00.291.645L15 5.798a.993.993 0 00-.644-.29 1 1 0 01-.936-.937.993.993 0 00-.291-.644l-1.061-1.061a1.087 1.087 0 00-.022-.022zm-7.371 7.42l1.06 1.06L2.28 14.78a.75.75 0 01-1.06-1.06l3.455-3.456z" clip-rule="evenodd"/></svg>