<svg xmlns="http://www.w3.org/2000/svg" fill="#737373" viewBox="0 0 16 16"><path d="M6.248 1.333A8.207 8.207 0 003.82.262 5.496 5.496 0 015.5 0c1.024 0 1.982.28 2.803.767-.719.1-1.408.293-2.055.566zM5.196 1.87a8.293 8.293 0 00-2.698 2.628A7.271 7.271 0 01.963 2.39c.365-.531.82-.995 1.344-1.369a7.205 7.205 0 012.889.849zM3.275 5.142a7.212 7.212 0 003.758 1.343c.099-.77.417-1.472.89-2.04a7.288 7.288 0 00-1.777-1.96 7.284 7.284 0 00-2.871 2.657zM7.163 8.135a7.266 7.266 0 00-3.492 2.553A5.493 5.493 0 005.5 11c1.103 0 2.13-.325 2.992-.884a4.005 4.005 0 01-1.329-1.981zM9.464 1.687c.383.399.707.855.957 1.355a3.979 3.979 0 00-1.755.709A8.294 8.294 0 007.19 2.048a7.244 7.244 0 012.263-.36h.011zM1.203 8.934c0-1.266.286-2.464.796-3.536a8.289 8.289 0 01-1.603-1.95A5.485 5.485 0 000 5.5c0 1.299.45 2.493 1.203 3.434zM6.265 7.408a8.28 8.28 0 00-3.52 2.854c-.086-.05-.471-.307-.471-.307a7.312 7.312 0 01-.07-1.018c0-1.031.215-2.012.603-2.9a8.203 8.203 0 003.458 1.371z"/><path fill-rule="evenodd" d="M11 10a3 3 0 100-6 3 3 0 000 6zm0-1a2 2 0 100-4 2 2 0 000 4z" clip-rule="evenodd"/><path d="M11 12.934l2.086-.834A1.396 1.396 0 0115 13.396V15.5a.5.5 0 001 0v-2.104a2.396 2.396 0 00-3.286-2.225L11 11.857l-1.714-.686A2.396 2.396 0 006 13.396V15.5a.5.5 0 001 0v-2.104A1.396 1.396 0 018.914 12.1l2.086.834z"/></svg>